<?xml version="1.0" encoding="UTF-8" standalone="no"?>
<!-- Created with Inkscape (http://www.inkscape.org/) -->

<svg
   width="69.57901mm"
   height="128.83774mm"
   viewBox="0 0 69.579008 128.83774"
   version="1.1"
   id="svg5"
   inkscape:version="1.1.1 (3bf5ae0d25, 2021-09-20)"
   sodipodi:docname="DNA-fig.svg"
   xmlns:inkscape="http://www.inkscape.org/namespaces/inkscape"
   xmlns:sodipodi="http://sodipodi.sourceforge.net/DTD/sodipodi-0.dtd"
   xmlns="http://www.w3.org/2000/svg"
   xmlns:svg="http://www.w3.org/2000/svg">
  <sodipodi:namedview
     id="namedview7"
     pagecolor="#ffffff"
     bordercolor="#666666"
     borderopacity="1.0"
     inkscape:pageshadow="2"
     inkscape:pageopacity="0.0"
     inkscape:pagecheckerboard="0"
     inkscape:document-units="mm"
     showgrid="false"
     showguides="false"
     inkscape:guide-bbox="true"
     inkscape:zoom="0.93303299"
     inkscape:cx="-268.47925"
     inkscape:cy="303.84778"
     inkscape:window-width="1920"
     inkscape:window-height="1001"
     inkscape:window-x="-9"
     inkscape:window-y="-9"
     inkscape:window-maximized="1"
     inkscape:current-layer="layer1"
     fit-margin-top="0"
     fit-margin-left="0"
     fit-margin-right="0"
     fit-margin-bottom="0">
    <sodipodi:guide
       position="-1.674777,71.225601"
       orientation="1,0"
       id="guide9" />
    <sodipodi:guide
       position="12.036885,66.975261"
       orientation="1,0"
       id="guide11" />
    <sodipodi:guide
       position="-9.7573648,130.61537"
       orientation="0,-1"
       id="guide15" />
    <sodipodi:guide
       position="-5.8869879,105.62076"
       orientation="0,-1"
       id="guide17" />
    <sodipodi:guide
       position="6.7265098,118.06715"
       orientation="0.70710678,-0.70710678"
       id="guide151" />
    <sodipodi:guide
       position="2.6879219,10.254213"
       orientation="0,-1"
       id="guide2496" />
    <sodipodi:guide
       position="1.7302559,71.438421"
       orientation="1,0"
       id="guide2498" />
  </sodipodi:namedview>
  <defs
     id="defs2">
    <rect
       x="371.35056"
       y="247.81966"
       width="106.85802"
       height="185.67528"
       id="rect38057" />
    <rect
       x="320.57404"
       y="224.32605"
       width="128.83591"
       height="93.216568"
       id="rect35243" />
    <rect
       x="345.58337"
       y="195.52744"
       width="119.74161"
       height="125.80448"
       id="rect33257" />
    <rect
       x="343.30981"
       y="118.22589"
       width="128.07805"
       height="65.93367"
       id="rect26563" />
    <rect
       x="116.28742"
       y="162.37367"
       width="122.71806"
       height="106.10557"
       id="rect17265" />
    <rect
       x="123.78983"
       y="160.23013"
       width="61.626972"
       height="71.272934"
       id="rect10026" />
  </defs>
  <g
     inkscape:label="Lag 1"
     inkscape:groupmode="layer"
     id="layer1"
     transform="translate(-54.772029,-11.765435)">
    <path
       id="path1876"
       style="fill:#b3b3b3;fill-rule:evenodd;stroke-width:0.241772"
       d="m 54.80397,82.990146 c 0.78311,-0.481512 2.57677,-1.597265 3.86515,-2.395897 -0.25955,0.166251 -0.52732,0.37849 -0.79634,0.631184 -1.6828,1.583701 -3.04709,4.371843 -3.04732,6.227727 1.8e-4,0.0862 0.004,0.16943 0.01,0.24965 l -0.031,0.0192 z m 0,0 c -0.006,-0.0802 0.0217,-0.182757 0.0215,-0.268914 2.4e-4,-1.855876 1.36453,-4.644025 3.04733,-6.227725 0.26902,-0.252692 0.5368,-0.464933 0.79635,-0.631184 l 0.11657,-0.07226 c 0.15568,-0.09246 0.30718,-0.224367 0.45302,-0.28082 l 13.24117,-8.207825 0.39498,-0.244833 0.17463,-0.108246 c 0.25955,-0.166255 0.52732,-0.378491 0.79634,-0.631184 1.68281,-1.583701 3.04709,-4.371849 3.04733,-6.227726 -1.9e-4,-0.08615 -0.003,-0.169436 -0.01,-0.249645 l 0.0311,-0.01927 v 4.731926 c 0.006,0.08021 -0.0217,0.182758 -0.0215,0.268914 -2.4e-4,1.855876 -1.36452,4.644022 -3.04733,6.227723 -0.26902,0.252694 -0.53679,0.464933 -0.79634,0.631187 l -0.11657,0.07225 c -0.15569,0.09246 -0.30719,0.224367 -0.45304,0.280822 l -13.24118,8.207828 -0.45303,0.280821 -0.11657,0.07226 z" />
    <path
       id="rect3116"
       style="fill:#ffb380;stroke-width:0.241772"
       d="m 76.88359,60.12214 v 3.214032 H 57.10688 V 60.12214 Z" />
    <path
       id="path1536"
       style="fill:#b3b3b3;fill-rule:evenodd;stroke-width:0.241772"
       d="m 54.89168,64.646557 c 0.78312,-0.481512 2.57677,-1.597266 3.86516,-2.395897 -0.25955,0.166251 -0.52733,0.378489 -0.79635,0.631183 -1.6828,1.583701 -3.04709,4.371847 -3.04732,6.227723 1.8e-4,0.08616 0.004,0.169436 0.01,0.249646 l -0.0311,0.01926 z m 0,0 c -0.006,-0.0802 0.0217,-0.182757 0.0215,-0.268914 2.4e-4,-1.855876 1.36453,-4.644025 3.04733,-6.227726 0.26902,-0.252691 0.5368,-0.464932 0.79635,-0.631183 l 0.11657,-0.07226 c 0.15568,-0.09246 0.30719,-0.224368 0.45303,-0.280821 l 13.24117,-8.207828 0.39497,-0.24483 0.17463,-0.10825 c 0.25955,-0.16625 0.52733,-0.37849 0.79635,-0.63118 1.6828,-1.5837 3.04708,-4.37185 3.04732,-6.22773 -1.8e-4,-0.0862 -0.003,-0.16943 -0.01,-0.24964 l 0.0311,-0.0193 v 4.73193 c 0.006,0.0802 -0.0217,0.18275 -0.0215,0.26891 -2.3e-4,1.85588 -1.36452,4.64402 -3.04732,6.227722 -0.26903,0.252694 -0.5368,0.464933 -0.79635,0.631187 l -0.11657,0.07225 c -0.15569,0.09246 -0.30719,0.224366 -0.45303,0.280821 l -13.24118,8.207829 -0.45304,0.28082 -0.11657,0.07226 z" />
    <path
       id="rect2626"
       style="fill:#87cdde;stroke-width:0.2101"
       d="m 75.35196,60.269938 c -0.0152,-0.0094 -0.0174,-0.0082 -0.0261,-0.01269 -2e-5,0.0018 3e-5,0.0033 0,0.0049 0.005,0.0032 0.01,0.0059 0.0146,0.0092 0.004,-4.99e-4 0.008,-7.49e-4 0.0114,-0.0015 z m -1.10171,3.030557 c -2.4e-4,-10e-4 -7.1e-4,-0.002 -9.8e-4,-0.0029 4e-5,0.004 -4e-5,0.0053 0,0.0092 4.7e-4,-0.002 4.7e-4,-0.0042 9.8e-4,-0.0063 z M 72.92544,60.12214 h -0.0361 c 0.003,0.0722 0.006,0.144396 0.009,0.216574 0.005,0.003 0.009,0.0056 0.0137,0.0088 0.004,-0.07528 0.009,-0.150267 0.0137,-0.225352 z m -3.11772,2.323283 c 8.8e-4,-0.175536 -4.7e-4,-0.351394 -0.004,-0.527776 -0.006,0.03795 -0.0173,0.09822 -0.0228,0.130237 l 0.002,0.05512 c 0.0128,0.578255 0.0152,0.689202 0.0173,0.78532 0.004,-0.147942 0.007,-0.295449 0.008,-0.442899 z m -2.62996,0.89068 -1.64937,-1.759411 1.36366,-1.454552 h -9.78517 v 3.213963 z" />
    <path
       id="path1758"
       style="fill:#b3b3b3;fill-rule:evenodd;stroke-width:0.241772"
       d="m 54.77288,34.935145 c 0.78312,-0.48151 2.57677,-1.59726 3.86516,-2.3959 -0.25955,0.16625 -0.52733,0.37849 -0.79635,0.63119 -1.6828,1.58369 -3.04709,4.37184 -3.04732,6.22772 1.8e-4,0.0862 0.004,0.16943 0.01,0.24964 l -0.031,0.0192 z m 0,0 c -0.006,-0.0802 0.0217,-0.18276 0.0215,-0.26891 2.3e-4,-1.85588 1.36452,-4.64403 3.04732,-6.22773 0.26903,-0.25269 0.5368,-0.46494 0.79635,-0.63119 l 0.11657,-0.0723 c 0.15569,-0.0925 0.30719,-0.22436 0.45303,-0.28082 l 13.24118,-8.20782 0.39497,-0.24483 0.17463,-0.10825 c 0.25955,-0.16626 0.52733,-0.37849 0.79635,-0.63118 1.6828,-1.58371 3.04708,-4.37185 3.04732,-6.22773 -1.8e-4,-0.0862 -0.003,-0.16944 -0.01,-0.24965 l 0.0311,-0.0193 v 4.73193 c 0.006,0.0802 -0.0217,0.18276 -0.0215,0.26891 -2.3e-4,1.85588 -1.36452,4.64403 -3.04732,6.22773 -0.26903,0.25269 -0.5368,0.46493 -0.79635,0.63118 l -0.11657,0.0722 c -0.15569,0.0925 -0.30719,0.22437 -0.45303,0.28083 l -13.24119,8.20783 -0.45303,0.28082 -0.11657,0.0723 z" />
    <path
       id="path1874"
       style="fill:#808080;fill-rule:evenodd;stroke-width:0.241772"
       d="m 76.88359,58.104767 c -0.78312,-0.481512 -2.57677,-1.597265 -3.86516,-2.395897 0.25955,0.166251 0.52733,0.37849 0.79635,0.631184 1.6828,1.5837 3.04709,4.371846 3.04732,6.227722 -1.8e-4,0.08616 -0.003,0.169436 -0.01,0.249647 l 0.0311,0.01927 z m 0,0 c 0.006,-0.0802 -0.0217,-0.182757 -0.0215,-0.268914 -2.3e-4,-1.855876 -1.36452,-4.644025 -3.04733,-6.227728 -0.26902,-0.25269 -0.53679,-0.46493 -0.79634,-0.63118 l -0.11657,-0.0723 c -0.15569,-0.0925 -0.30719,-0.22437 -0.45303,-0.28082 l -13.24119,-8.20783 -0.39497,-0.24483 -0.17463,-0.10825 c -0.25955,-0.16625 -0.52733,-0.37849 -0.79635,-0.63118 -1.6828,-1.5837 -3.04708,-4.37185 -3.04732,-6.22773 1.8e-4,-0.0862 0.004,-0.16943 0.01,-0.24964 l -0.031,-0.0193 v 4.73192 c -0.006,0.0802 0.0217,0.18276 0.0215,0.26892 2.3e-4,1.85587 1.36452,4.64402 3.04732,6.22772 0.26903,0.25269 0.5368,0.46493 0.79634,0.63119 l 0.11658,0.0723 c 0.15569,0.0925 0.30718,0.22436 0.45303,0.28082 l 13.24118,8.207825 0.45303,0.280821 0.11658,0.07226 z" />
    <path
       id="path1878"
       style="fill:#808080;fill-rule:evenodd;stroke-width:0.241772"
       d="m 76.88359,58.104767 c -0.78312,-0.481512 -2.57677,-1.597265 -3.86516,-2.395897 0.25955,0.166251 0.52733,0.37849 0.79635,0.631184 1.6828,1.5837 3.04709,4.371846 3.04732,6.227722 -1.8e-4,0.08616 -0.003,0.169436 -0.01,0.249647 l 0.0311,0.01927 z m 0,0 c 0.006,-0.0802 -0.0217,-0.182757 -0.0215,-0.268914 -2.3e-4,-1.855876 -1.36452,-4.644025 -3.04733,-6.227728 -0.26902,-0.25269 -0.53679,-0.46493 -0.79634,-0.63118 l -0.11657,-0.0723 c -0.15569,-0.0925 -0.30719,-0.22437 -0.45303,-0.28082 l -13.24119,-8.20783 -0.39497,-0.24483 -0.17463,-0.10825 c -0.25955,-0.16625 -0.52733,-0.37849 -0.79635,-0.63118 -1.6828,-1.5837 -3.04708,-4.37185 -3.04732,-6.22773 1.8e-4,-0.0862 0.004,-0.16943 0.01,-0.24964 l -0.031,-0.0193 v 4.73192 c -0.006,0.0802 0.0217,0.18276 0.0215,0.26892 2.3e-4,1.85587 1.36452,4.64402 3.04732,6.22772 0.26903,0.25269 0.5368,0.46493 0.79634,0.63119 l 0.11658,0.0723 c 0.15569,0.0925 0.30718,0.22436 0.45303,0.28082 l 13.24118,8.207825 0.45303,0.280821 0.11658,0.07226 z" />
    <path
       id="path1880"
       style="fill:#808080;fill-rule:evenodd;stroke-width:0.241772"
       d="m 76.88359,58.104767 c -0.78312,-0.481512 -2.57677,-1.597265 -3.86516,-2.395897 0.25955,0.166251 0.52733,0.37849 0.79635,0.631184 1.6828,1.5837 3.04709,4.371846 3.04732,6.227722 -1.8e-4,0.08616 -0.003,0.169436 -0.01,0.249647 l 0.0311,0.01927 z m 0,0 c 0.006,-0.0802 -0.0217,-0.182757 -0.0215,-0.268914 -2.3e-4,-1.855876 -1.36452,-4.644025 -3.04733,-6.227728 -0.26902,-0.25269 -0.53679,-0.46493 -0.79634,-0.63118 l -0.11657,-0.0723 c -0.15569,-0.0925 -0.30719,-0.22437 -0.45303,-0.28082 l -13.24119,-8.20783 -0.39497,-0.24483 -0.17463,-0.10825 c -0.25955,-0.16625 -0.52733,-0.37849 -0.79635,-0.63118 -1.6828,-1.5837 -3.04708,-4.37185 -3.04732,-6.22773 1.8e-4,-0.0862 0.004,-0.16943 0.01,-0.24964 l -0.031,-0.0193 v 4.73192 c -0.006,0.0802 0.0217,0.18276 0.0215,0.26892 2.3e-4,1.85587 1.36452,4.64402 3.04732,6.22772 0.26903,0.25269 0.5368,0.46493 0.79634,0.63119 l 0.11658,0.0723 c 0.15569,0.0925 0.30718,0.22436 0.45303,0.28082 l 13.24118,8.207825 0.45303,0.280821 0.11658,0.07226 z" />
    <path
       id="path1884"
       style="fill:#808080;fill-rule:evenodd;stroke-width:0.241772"
       d="m 77.00239,87.81618 c -0.78312,-0.48151 -2.57677,-1.597264 -3.86516,-2.395894 0.25955,0.16625 0.52733,0.37849 0.79635,0.63118 1.6828,1.583704 3.04709,4.371844 3.04732,6.227724 -1.8e-4,0.0862 -0.003,0.16944 -0.01,0.24965 l 0.0311,0.0192 z m 0,0 c 0.006,-0.0802 -0.0217,-0.18275 -0.0215,-0.26891 -2.4e-4,-1.855884 -1.36452,-4.64403 -3.04733,-6.227731 -0.26902,-0.252691 -0.5368,-0.464932 -0.79634,-0.631183 l -0.11658,-0.07226 c -0.15568,-0.09246 -0.30718,-0.224368 -0.45303,-0.280821 L 59.32643,72.127447 58.93146,71.882614 58.75683,71.774368 c -0.25956,-0.166255 -0.52733,-0.378492 -0.79635,-0.631185 -1.6828,-1.583701 -3.04709,-4.371848 -3.04732,-6.227725 1.8e-4,-0.08615 0.004,-0.169436 0.01,-0.249646 l -0.0311,-0.01926 v 4.731926 c -0.006,0.08021 0.0217,0.182758 0.0215,0.268914 2.3e-4,1.855877 1.36452,4.644022 3.04732,6.227723 0.26902,0.252694 0.5368,0.464933 0.79635,0.631187 l 0.11657,0.07225 c 0.15569,0.09246 0.30719,0.224366 0.45303,0.280821 l 13.24118,8.207823 0.45303,0.28082 0.11658,0.0723 z" />
    <path
       id="path1886"
       style="fill:#b3b3b3;fill-rule:evenodd;stroke-width:0.241772"
       d="m 54.92276,112.70157 c 0.78313,-0.48152 2.57678,-1.59727 3.86517,-2.3959 -0.25955,0.16625 -0.52733,0.37849 -0.79635,0.63118 -1.68281,1.5837 -3.04709,4.37184 -3.04733,6.22772 1.9e-4,0.0862 0.004,0.16943 0.01,0.24965 l -0.0311,0.0192 z m 0,0 c -0.006,-0.0802 0.0217,-0.18276 0.0215,-0.26892 2.4e-4,-1.85588 1.36452,-4.64403 3.04733,-6.22772 0.26902,-0.2527 0.5368,-0.46494 0.79635,-0.63119 l 0.11656,-0.0722 c 0.15569,-0.0924 0.30719,-0.22437 0.45304,-0.28082 l 13.24118,-8.20783 0.39498,-0.24484 0.17462,-0.10823 c 0.25956,-0.16626 0.52733,-0.3785 0.79635,-0.63119 1.68281,-1.5837 3.04709,-4.37185 3.04733,-6.22773 -1.9e-4,-0.0862 -0.003,-0.16944 -0.01,-0.24964 l 0.0311,-0.0193 v 4.73193 c 0.006,0.0802 -0.0217,0.18276 -0.0215,0.26892 -2.4e-4,1.85587 -1.36452,4.64401 -3.04733,6.22771 -0.26902,0.2527 -0.5368,0.46494 -0.79635,0.63119 l -0.11657,0.0722 c -0.15568,0.0924 -0.30718,0.22437 -0.45303,0.28082 l -13.24118,8.20783 -0.45304,0.28082 -0.11656,0.0723 z" />
    <path
       id="path1888"
       style="fill:#808080;fill-rule:evenodd;stroke-width:0.241772"
       d="m 77.00239,87.81618 c -0.78312,-0.48151 -2.57677,-1.597264 -3.86516,-2.395894 0.25955,0.16625 0.52733,0.37849 0.79635,0.63118 1.6828,1.583704 3.04709,4.371844 3.04732,6.227724 -1.8e-4,0.0862 -0.003,0.16944 -0.01,0.24965 l 0.0311,0.0192 z m 0,0 c 0.006,-0.0802 -0.0217,-0.18275 -0.0215,-0.26891 -2.4e-4,-1.855884 -1.36452,-4.64403 -3.04733,-6.227731 -0.26902,-0.252691 -0.5368,-0.464932 -0.79634,-0.631183 l -0.11658,-0.07226 c -0.15568,-0.09246 -0.30718,-0.224368 -0.45303,-0.280821 L 59.32643,72.127447 58.93146,71.882614 58.75683,71.774368 c -0.25956,-0.166255 -0.52733,-0.378492 -0.79635,-0.631185 -1.6828,-1.583701 -3.04709,-4.371848 -3.04732,-6.227725 1.8e-4,-0.08615 0.004,-0.169436 0.01,-0.249646 l -0.0311,-0.01926 v 4.731926 c -0.006,0.08021 0.0217,0.182758 0.0215,0.268914 2.3e-4,1.855877 1.36452,4.644022 3.04732,6.227723 0.26902,0.252694 0.5368,0.464933 0.79635,0.631187 l 0.11657,0.07225 c 0.15569,0.09246 0.30719,0.224366 0.45303,0.280821 l 13.24118,8.207823 0.45303,0.28082 0.11658,0.0723 z" />
    <path
       id="path3332"
       style="fill:#cdde87;stroke-width:0.246853"
       d="m 75.50832,64.646551 v 3.214032 H 54.89167 v -3.214032 z" />
    <path
       id="path1890"
       style="fill:#808080;fill-rule:evenodd;stroke-width:0.241772"
       d="m 77.00239,87.81618 c -0.78312,-0.48151 -2.57677,-1.597264 -3.86516,-2.395894 0.25955,0.16625 0.52733,0.37849 0.79635,0.63118 1.6828,1.583704 3.04709,4.371844 3.04732,6.227724 -1.8e-4,0.0862 -0.003,0.16944 -0.01,0.24965 l 0.0311,0.0192 z m 0,0 c 0.006,-0.0802 -0.0217,-0.18275 -0.0215,-0.26891 -2.4e-4,-1.855884 -1.36452,-4.64403 -3.04733,-6.227731 -0.26902,-0.252691 -0.5368,-0.464932 -0.79634,-0.631183 l -0.11658,-0.07226 c -0.15568,-0.09246 -0.30718,-0.224368 -0.45303,-0.280821 L 59.32643,72.127447 58.93146,71.882614 58.75683,71.774368 c -0.25956,-0.166255 -0.52733,-0.378492 -0.79635,-0.631185 -1.6828,-1.583701 -3.04709,-4.371848 -3.04732,-6.227725 1.8e-4,-0.08615 0.004,-0.169436 0.01,-0.249646 l -0.0311,-0.01926 v 4.731926 c -0.006,0.08021 0.0217,0.182758 0.0215,0.268914 2.3e-4,1.855877 1.36452,4.644022 3.04732,6.227723 0.26902,0.252694 0.5368,0.464933 0.79635,0.631187 l 0.11657,0.07225 c 0.15569,0.09246 0.30719,0.224366 0.45303,0.280821 l 13.24118,8.207823 0.45303,0.28082 0.11658,0.0723 z" />
    <path
       id="path3334"
       style="fill:#ff8080;stroke-width:0.223374"
       d="m 75.51516,64.794418 c -0.0172,-0.0094 -0.0197,-0.0082 -0.0295,-0.01269 -3e-5,0.0018 3e-5,0.0033 0,0.0049 0.005,0.0032 0.0112,0.0059 0.0165,0.0093 0.004,-4.99e-4 0.009,-7.49e-4 0.0129,-0.0015 z m -1.24533,3.030557 c -2.7e-4,-10e-4 -8e-4,-0.002 -0.001,-0.0029 4e-5,0.004 -5e-5,0.0053 0,0.0093 5.3e-4,-0.002 5.3e-4,-0.0042 0.001,-0.0063 z M 72.77232,64.64662 h -0.0408 c 0.004,0.0722 0.006,0.144396 0.01,0.216574 0.005,0.003 0.0105,0.0056 0.0155,0.0088 0.004,-0.07528 0.0101,-0.150267 0.0155,-0.225352 z m -3.52414,2.323283 c 8.8e-4,-0.175536 -5.3e-4,-0.351394 -0.004,-0.527776 -0.007,0.03795 -0.0195,0.09822 -0.0258,0.130237 l 0.002,0.05512 c 0.0145,0.578255 0.0172,0.689202 0.0196,0.78532 0.004,-0.147942 0.008,-0.295449 0.009,-0.442899 z m -2.9728,0.89068 -1.86437,-1.759411 1.54142,-1.454552 H 54.89167 v 3.213963 z" />
    <path
       id="path1894"
       style="fill:#808080;fill-rule:evenodd;stroke-width:0.241772"
       d="m 76.91467,106.15977 c -0.78312,-0.48151 -2.57677,-1.59726 -3.86515,-2.39589 0.25955,0.16625 0.52732,0.37849 0.79634,0.63118 1.68281,1.58371 3.04709,4.37184 3.04733,6.22772 -1.9e-4,0.0862 -0.003,0.16943 -0.01,0.24965 l 0.0311,0.0192 z m 0,0 c 0.006,-0.0802 -0.0217,-0.18275 -0.0215,-0.26891 -2.3e-4,-1.85588 -1.36451,-4.64403 -3.04732,-6.22772 -0.26902,-0.2527 -0.5368,-0.46494 -0.79635,-0.63119 l -0.11657,-0.0723 C 72.77724,98.86725 72.62575,98.73529 72.4799,98.67884 L 59.23872,90.47101 58.84375,90.22617 58.66911,90.11793 c -0.25955,-0.16626 -0.52732,-0.37849 -0.79634,-0.63119 -1.6828,-1.5837 -3.04709,-4.371854 -3.04732,-6.227726 1.8e-4,-0.08615 0.004,-0.169436 0.01,-0.249645 l -0.031,-0.01926 v 4.731931 c -0.006,0.0802 0.0217,0.18275 0.0215,0.2689 2.3e-4,1.85588 1.36453,4.64403 3.04733,6.22773 0.26902,0.25269 0.5368,0.46494 0.79634,0.63119 l 0.11658,0.0722 c 0.15568,0.0925 0.30718,0.22436 0.45302,0.28082 l 13.24119,8.20783 0.45303,0.28082 0.11657,0.0722 z" />
    <path
       id="path1896"
       style="fill:#b3b3b3;fill-rule:evenodd;stroke-width:0.241772"
       d="m 54.83505,131.04516 c 0.78312,-0.48152 2.57678,-1.59727 3.86516,-2.3959 -0.25955,0.16625 -0.52732,0.37848 -0.79634,0.63118 -1.68281,1.5837 -3.04709,4.37184 -3.04733,6.22772 1.9e-4,0.0862 0.004,0.16944 0.01,0.24964 l -0.0311,0.0193 z m 0,0 c -0.006,-0.0802 0.0217,-0.18276 0.0215,-0.26892 2.4e-4,-1.85587 1.36452,-4.64403 3.04732,-6.22773 0.26903,-0.25269 0.53681,-0.46493 0.79636,-0.63118 l 0.11656,-0.0722 c 0.15569,-0.0924 0.30719,-0.22437 0.45303,-0.28082 l 13.24119,-8.20783 0.39497,-0.24483 0.17463,-0.10824 c 0.25955,-0.16626 0.52733,-0.3785 0.79635,-0.63119 1.6828,-1.5837 3.04709,-4.37185 3.04732,-6.22773 -1.8e-4,-0.0862 -0.003,-0.16944 -0.01,-0.24964 l 0.0311,-0.0193 v 4.73193 c 0.006,0.0802 -0.0217,0.18276 -0.0215,0.26892 -2.3e-4,1.85587 -1.36452,4.64401 -3.04732,6.22772 -0.26902,0.25269 -0.5368,0.46493 -0.79635,0.63118 l -0.11657,0.0722 c -0.15569,0.0924 -0.30718,0.22436 -0.45303,0.28082 l -13.24119,8.20783 -0.45303,0.28082 -0.11656,0.0722 z" />
    <path
       id="path1898"
       style="fill:#808080;fill-rule:evenodd;stroke-width:0.241772"
       d="m 76.91467,106.15977 c -0.78312,-0.48151 -2.57677,-1.59726 -3.86515,-2.39589 0.25955,0.16625 0.52732,0.37849 0.79634,0.63118 1.68281,1.58371 3.04709,4.37184 3.04733,6.22772 -1.9e-4,0.0862 -0.003,0.16943 -0.01,0.24965 l 0.0311,0.0192 z m 0,0 c 0.006,-0.0802 -0.0217,-0.18275 -0.0215,-0.26891 -2.3e-4,-1.85588 -1.36451,-4.64403 -3.04732,-6.22772 -0.26902,-0.2527 -0.5368,-0.46494 -0.79635,-0.63119 l -0.11657,-0.0723 C 72.77724,98.86725 72.62575,98.73529 72.4799,98.67884 L 59.23872,90.47101 58.84375,90.22617 58.66911,90.11793 c -0.25955,-0.16626 -0.52732,-0.37849 -0.79634,-0.63119 -1.6828,-1.5837 -3.04709,-4.371854 -3.04732,-6.227726 1.8e-4,-0.08615 0.004,-0.169436 0.01,-0.249645 l -0.031,-0.01926 v 4.731931 c -0.006,0.0802 0.0217,0.18275 0.0215,0.2689 2.3e-4,1.85588 1.36453,4.64403 3.04733,6.22773 0.26902,0.25269 0.5368,0.46494 0.79634,0.63119 l 0.11658,0.0722 c 0.15568,0.0925 0.30718,0.22436 0.45302,0.28082 l 13.24119,8.20783 0.45303,0.28082 0.11657,0.0722 z" />
    <path
       id="path1900"
       style="fill:#808080;fill-rule:evenodd;stroke-width:0.241772"
       d="m 76.91467,106.15977 c -0.78312,-0.48151 -2.57677,-1.59726 -3.86515,-2.39589 0.25955,0.16625 0.52732,0.37849 0.79634,0.63118 1.68281,1.58371 3.04709,4.37184 3.04733,6.22772 -1.9e-4,0.0862 -0.003,0.16943 -0.01,0.24965 l 0.0311,0.0192 z m 0,0 c 0.006,-0.0802 -0.0217,-0.18275 -0.0215,-0.26891 -2.3e-4,-1.85588 -1.36451,-4.64403 -3.04732,-6.22772 -0.26902,-0.2527 -0.5368,-0.46494 -0.79635,-0.63119 l -0.11657,-0.0723 C 72.77724,98.86725 72.62575,98.73529 72.4799,98.67884 L 59.23872,90.47101 58.84375,90.22617 58.66911,90.11793 c -0.25955,-0.16626 -0.52732,-0.37849 -0.79634,-0.63119 -1.6828,-1.5837 -3.04709,-4.371854 -3.04732,-6.227726 1.8e-4,-0.08615 0.004,-0.169436 0.01,-0.249645 l -0.031,-0.01926 v 4.731931 c -0.006,0.0802 0.0217,0.18275 0.0215,0.2689 2.3e-4,1.85588 1.36453,4.64403 3.04733,6.22773 0.26902,0.25269 0.5368,0.46494 0.79634,0.63119 l 0.11658,0.0722 c 0.15568,0.0925 0.30718,0.22436 0.45302,0.28082 l 13.24119,8.20783 0.45303,0.28082 0.11657,0.0722 z" />
    <path
       id="path3284"
       style="fill:#cdde87;stroke-width:0.207304"
       d="m 55.97999,69.877961 v 3.214032 h 14.53965 v -3.214032 z" />
    <path
       id="path3286"
       style="fill:#ff8080;stroke-width:0.180146"
       d="m 57.10603,70.025828 c 0.0111,-0.0094 0.0127,-0.0082 0.0192,-0.01269 2e-5,0.0018 -1e-5,0.0033 0,0.0049 -0.004,0.0032 -0.007,0.0059 -0.0107,0.0092 -0.003,-4.99e-4 -0.005,-7.49e-4 -0.009,-0.0015 z m 0.80997,3.030557 c 1.7e-4,-0.001 5.2e-4,-0.002 6.6e-4,-0.0029 -4e-5,0.004 1e-5,0.0053 0,0.0093 -3.5e-4,-0.002 -3.5e-4,-0.0042 -6.6e-4,-0.0063 z m 0.97398,-3.178355 h 0.0265 c -0.002,0.0722 -0.004,0.144396 -0.006,0.216574 -0.004,0.003 -0.007,0.0056 -0.0101,0.0088 -0.003,-0.07528 -0.006,-0.150267 -0.0101,-0.225352 z m 2.29212,2.323283 c -6.5e-4,-0.175536 3.4e-4,-0.351394 0.003,-0.527776 0.004,0.03795 0.0127,0.09822 0.0168,0.130237 l -0.002,0.05512 c -0.009,0.578255 -0.0112,0.689202 -0.0127,0.78532 -0.003,-0.147942 -0.005,-0.295449 -0.005,-0.442899 z m 1.93352,0.89068 1.2126,-1.759411 -1.00255,-1.454552 h 7.19397 v 3.213963 z" />
    <path
       id="path3288"
       style="fill:#ffb380;stroke-width:0.241772"
       d="m 54.80401,36.433765 v 3.21403 h 19.77671 v -3.21403 z" />
    <path
       id="path3290"
       style="fill:#87cdde;stroke-width:0.2101"
       d="m 56.33564,36.581565 c 0.0152,-0.009 0.0174,-0.008 0.0261,-0.0127 2e-5,0.002 -3e-5,0.003 0,0.005 -0.004,0.003 -0.01,0.006 -0.0146,0.009 -0.004,-5e-4 -0.008,-7.5e-4 -0.0114,-0.002 z m 1.10172,3.03056 c 2.3e-4,-10e-4 7e-4,-0.002 8.8e-4,-0.003 -4e-5,0.004 4e-5,0.005 0,0.009 -4.7e-4,-0.002 -4.7e-4,-0.004 -8.8e-4,-0.006 z m 1.3248,-3.17836 h 0.0361 c -0.004,0.0722 -0.005,0.1444 -0.009,0.21658 -0.004,0.003 -0.009,0.006 -0.0137,0.009 -0.004,-0.0753 -0.009,-0.15027 -0.0137,-0.22536 z m 3.11772,2.32329 c -8.8e-4,-0.17554 4.7e-4,-0.3514 0.004,-0.52778 0.006,0.0379 0.0172,0.0982 0.0228,0.13024 l -0.002,0.0551 c -0.0128,0.57825 -0.0152,0.6892 -0.0173,0.78532 -0.004,-0.14795 -0.007,-0.29545 -0.008,-0.4429 z m 2.62996,0.89068 1.64937,-1.75942 -1.36366,-1.45455 h 9.78517 v 3.21397 z" />
    <path
       id="path3292"
       style="fill:#ffb380;stroke-width:0.185797"
       d="m 56.14408,31.400255 v 3.21403 h 11.67934 v -3.21403 z" />
    <path
       id="path3294"
       style="fill:#87cdde;stroke-width:0.161457"
       d="m 57.0486,31.548055 c 0.009,-0.009 0.0103,-0.008 0.0154,-0.0127 2e-5,0.002 -2e-5,0.003 0,0.005 -0.003,0.003 -0.006,0.006 -0.009,0.009 -0.002,-5e-4 -0.004,-7.5e-4 -0.007,-10e-4 z m 0.65063,3.03055 c 1.4e-4,-0.001 4.1e-4,-0.002 5.3e-4,-0.003 -3e-5,0.004 1e-5,0.005 0,0.009 -2.8e-4,-0.002 -2.8e-4,-0.004 -5.3e-4,-0.006 z m 0.78238,-3.17835 h 0.0213 c -0.002,0.0722 -0.004,0.14439 -0.005,0.21657 -0.003,0.003 -0.005,0.006 -0.008,0.009 -0.002,-0.0753 -0.005,-0.15026 -0.008,-0.22535 z m 1.8412,2.32328 c -5.2e-4,-0.17553 2.8e-4,-0.35139 0.002,-0.52777 0.004,0.038 0.0102,0.0982 0.0135,0.13023 l -8.9e-4,0.0551 c -0.008,0.57826 -0.009,0.68921 -0.0103,0.78532 -0.002,-0.14794 -0.004,-0.29544 -0.004,-0.4429 z m 1.55314,0.89068 0.97406,-1.75941 -0.80532,-1.45455 h 5.77873 v 3.21396 z" />
    <path
       id="path3394"
       style="fill:#cdde87;stroke-width:0.246852"
       d="m 93.639669,53.782428 h 2.736008 c 0.0054,0.07509 0.01147,0.150077 0.01554,0.225354 0.005,-0.0032 0.01059,-0.0058 0.01554,-0.0088 0.004,-0.07218 0.0056,-0.144373 0.0096,-0.216574 h 6.779453 l 1.54149,1.454552 -1.86469,1.759411 h -9.232945 v -3.065192 c 0.0021,2.11e-4 0.0043,2.5e-4 0.0064,4.9e-4 0.0054,-0.0034 0.01097,-0.0056 0.01645,-0.0088 -2.7e-5,-0.0016 3.1e-5,-0.0036 0,-0.0054 -0.0075,0.0034 -0.01395,0.0056 -0.02286,0.0098 z m 1.238403,3.178354 c 5.33e-4,0.0021 8.42e-4,0.0043 0.0014,0.0063 4.7e-5,-0.004 -4.4e-5,-0.0053 0,-0.0093 -2.66e-4,9.42e-4 -0.0011,0.0019 -0.0014,0.0029 z m 5.021276,-0.855071 c 8.85e-4,0.14745 0.0051,0.294957 0.0087,0.4429 0.0024,-0.09612 0.0051,-0.207066 0.01966,-0.785321 l 0.0019,-0.05512 c -0.0064,-0.03202 -0.01898,-0.09229 -0.02605,-0.130237 -0.003,0.176382 -0.0045,0.352238 -0.0036,0.527777 z" />
    <path
       id="path3398"
       style="fill:#cdde87;stroke-width:0.246853"
       d="m 77.00847,41.327595 v 3.21403 H 56.39182 v -3.21403 z" />
    <path
       id="path3400"
       style="fill:#ff8080;stroke-width:0.223374"
       d="m 77.01531,41.475455 c -0.0172,-0.009 -0.0197,-0.008 -0.0295,-0.0127 -3e-5,0.002 3e-5,0.003 0,0.005 0.005,0.003 0.0112,0.006 0.0165,0.009 0.004,-5e-4 0.009,-7.5e-4 0.0129,-0.002 z m -1.24533,3.03056 c -2.7e-4,-10e-4 -8e-4,-0.002 -0.001,-0.003 4e-5,0.004 -5e-5,0.005 0,0.009 5.3e-4,-0.002 5.3e-4,-0.004 0.001,-0.006 z m -1.49751,-3.17836 h -0.0408 c 0.004,0.0722 0.006,0.1444 0.01,0.21658 0.005,0.003 0.0105,0.006 0.0155,0.009 0.004,-0.0753 0.0101,-0.15027 0.0155,-0.22535 z m -3.52414,2.32329 c 8.9e-4,-0.17554 -5.3e-4,-0.3514 -0.004,-0.52778 -0.007,0.0379 -0.0195,0.0982 -0.0258,0.13024 l 0.002,0.0551 c 0.0145,0.57825 0.0172,0.6892 0.0195,0.78532 0.004,-0.14794 0.008,-0.29545 0.009,-0.4429 z m -2.9728,0.89068 -1.86437,-1.75941 1.54143,-1.45456 H 56.39182 v 3.21397 z" />
    <path
       id="path3402"
       style="fill:#cdde87;stroke-width:0.196935"
       d="m 75.66103,55.486386 v 3.214031 H 62.53949 v -3.214031 z" />
    <path
       id="path3404"
       style="fill:#ff8080;stroke-width:0.178204"
       d="m 75.66103,55.486386 c -0.0109,-0.0094 -0.0125,-0.0082 -0.0187,-0.01269 -1e-5,0.0018 2e-5,0.0033 0,0.0049 0.004,0.0032 0.007,0.0059 0.0105,0.0093 0.003,-4.99e-4 0.006,-7.49e-4 0.008,-0.0015 z m -0.7926,3.030557 c -1.6e-4,-10e-4 -5e-4,-0.002 -6.7e-4,-0.0029 3e-5,0.004 -3e-5,0.0053 0,0.0092 3.4e-4,-0.002 3.4e-4,-0.0042 6.7e-4,-0.0063 z m -0.95309,-3.178355 h -0.026 c 0.003,0.0722 0.004,0.144396 0.006,0.216574 0.003,0.003 0.007,0.0056 0.01,0.0088 0.003,-0.07528 0.006,-0.150267 0.01,-0.225352 z m -2.24295,2.323283 c 5.6e-4,-0.175536 -3.4e-4,-0.351394 -0.002,-0.527776 -0.005,0.03795 -0.0124,0.09822 -0.0164,0.130237 l 0.001,0.05512 c 0.009,0.578255 0.0109,0.689202 0.0125,0.78532 0.002,-0.147942 0.005,-0.295449 0.006,-0.442899 z m -1.89205,0.89068 -1.18659,-1.759411 0.98104,-1.454552 h -7.03966 v 3.213963 z" />
    <path
       id="path3406"
       style="fill:#87cdde;stroke-width:0.161457"
       d="m 57.0486,31.548055 c 0.009,-0.009 0.0103,-0.008 0.0154,-0.0127 2e-5,0.002 -2e-5,0.003 0,0.005 -0.003,0.003 -0.006,0.006 -0.009,0.009 -0.002,-5e-4 -0.004,-7.5e-4 -0.007,-10e-4 z m 0.65063,3.03055 c 1.4e-4,-0.001 4.1e-4,-0.002 5.3e-4,-0.003 -3e-5,0.004 1e-5,0.005 0,0.009 -2.8e-4,-0.002 -2.8e-4,-0.004 -5.3e-4,-0.006 z m 0.78238,-3.17835 h 0.0213 c -0.002,0.0722 -0.004,0.14439 -0.005,0.21657 -0.003,0.003 -0.005,0.006 -0.008,0.009 -0.002,-0.0753 -0.005,-0.15026 -0.008,-0.22535 z m 1.8412,2.32328 c -5.2e-4,-0.17553 2.8e-4,-0.35139 0.002,-0.52777 0.004,0.038 0.0102,0.0982 0.0135,0.13023 l -8.9e-4,0.0551 c -0.008,0.57826 -0.009,0.68921 -0.0103,0.78532 -0.002,-0.14794 -0.004,-0.29544 -0.004,-0.4429 z m 1.55314,0.89068 0.97406,-1.75941 -0.80532,-1.45455 h 5.77873 v 3.21396 z" />
    <path
       id="path3408"
       style="fill:#ffb380;stroke-width:0.214092"
       d="m 71.33408,80.109927 v 3.214032 H 55.82655 v -3.214032 z" />
    <path
       id="path3410"
       style="fill:#87cdde;stroke-width:0.186046"
       d="m 70.13308,80.257725 c -0.0119,-0.0094 -0.0136,-0.0082 -0.0204,-0.01269 -2e-5,0.0018 2e-5,0.0033 0,0.0049 0.004,0.0032 0.008,0.0059 0.0115,0.0093 0.003,-5e-4 0.006,-7.5e-4 0.009,-0.0015 z m -0.86389,3.030557 c -1.8e-4,-10e-4 -5.5e-4,-0.002 -7.6e-4,-0.0029 3e-5,0.004 -3e-5,0.0053 0,0.0093 3.7e-4,-0.002 3.7e-4,-0.0042 7.6e-4,-0.0063 z m -1.03882,-3.178355 h -0.0283 c 0.003,0.0722 0.004,0.144396 0.007,0.216574 0.004,0.003 0.007,0.0056 0.0107,0.0088 0.003,-0.07528 0.007,-0.150267 0.0108,-0.225352 z m -2.44471,2.323284 c 7e-4,-0.175537 -3.6e-4,-0.351395 -0.003,-0.527777 -0.004,0.03795 -0.0135,0.09822 -0.0179,0.130237 l 0.002,0.05512 c 0.0101,0.578255 0.0119,0.689203 0.0136,0.78532 0.003,-0.147942 0.005,-0.295449 0.006,-0.442899 z m -2.06222,0.890679 -1.29332,-1.759411 1.06929,-1.454552 h -7.67286 v 3.213963 z" />
    <path
       id="path3412"
       style="fill:#ffb380;stroke-width:0.249159"
       d="M 54.97605,84.988256 V 88.20229 H 75.97964 V 84.988256 Z" />
    <path
       id="path3414"
       style="fill:#87cdde;stroke-width:0.216519"
       d="m 56.6027,85.136056 c 0.0162,-0.009 0.0185,-0.008 0.0277,-0.0127 3e-5,0.002 -3e-5,0.003 0,0.005 -0.004,0.003 -0.0105,0.006 -0.0156,0.009 -0.004,-5e-4 -0.008,-7.5e-4 -0.0121,-0.002 z m 1.17005,3.030554 c 2.5e-4,-9.4e-4 7.5e-4,-0.002 8.9e-4,-0.003 -5e-5,0.004 3e-5,0.006 0,0.009 -5e-4,-0.002 -5e-4,-0.004 -8.9e-4,-0.007 z m 1.40699,-3.178354 h 0.0384 c -0.004,0.0722 -0.005,0.1444 -0.009,0.21657 -0.004,0.003 -0.01,0.006 -0.0145,0.009 -0.004,-0.0753 -0.01,-0.15027 -0.0146,-0.22535 z m 3.31115,2.323284 c -8.9e-4,-0.17553 4.9e-4,-0.35139 0.004,-0.52777 0.006,0.0379 0.0183,0.0982 0.0242,0.13023 l -0.002,0.0551 c -0.0136,0.57825 -0.0162,0.6892 -0.0184,0.78532 -0.004,-0.14794 -0.007,-0.29545 -0.008,-0.4429 z m 2.7931,0.89069 1.75169,-1.759424 -1.44826,-1.45455 h 10.39222 v 3.213974 z" />
    <path
       id="path3416"
       style="fill:#ffb380;stroke-width:0.196944"
       d="m 76.05163,45.992285 v 3.21403 H 62.92888 v -3.21403 z" />
    <path
       id="path3418"
       style="fill:#87cdde;stroke-width:0.171144"
       d="m 75.03533,46.140075 c -0.0101,-0.009 -0.0116,-0.008 -0.0173,-0.0127 -2e-5,0.002 1e-5,0.003 0,0.005 0.003,0.003 0.007,0.006 0.01,0.009 0.002,-5e-4 0.005,-7.5e-4 0.008,-0.002 z m -0.73104,3.03056 c -1.6e-4,-10e-4 -4.7e-4,-0.002 -6.5e-4,-0.003 3e-5,0.004 -3e-5,0.005 0,0.009 3.1e-4,-0.002 3.1e-4,-0.004 6.5e-4,-0.006 z m -0.87907,-3.17835 h -0.024 c 0.002,0.0722 0.004,0.14439 0.006,0.21657 0.003,0.003 0.006,0.006 0.009,0.009 0.002,-0.0753 0.006,-0.15027 0.009,-0.22535 z m -2.06875,2.32328 c 5.8e-4,-0.17554 -3.1e-4,-0.35139 -0.002,-0.52778 -0.004,0.038 -0.0114,0.0982 -0.0152,0.13024 l 7.8e-4,0.0551 c 0.008,0.57826 0.0101,0.6892 0.0115,0.78532 0.002,-0.14794 0.005,-0.29545 0.005,-0.4429 z m -1.7451,0.89068 -1.09443,-1.75941 0.90486,-1.45455 h -6.49292 v 3.21396 z" />
    <path
       id="path1882"
       style="fill:#808080;fill-rule:evenodd;stroke-width:0.241772"
       d="m 76.88359,58.104767 c -0.78312,-0.481512 -2.57677,-1.597265 -3.86516,-2.395897 0.25955,0.166251 0.52733,0.37849 0.79635,0.631184 1.6828,1.5837 3.04709,4.371846 3.04732,6.227722 -1.8e-4,0.08616 -0.003,0.169436 -0.01,0.249647 l 0.0311,0.01927 z m 0,0 c 0.006,-0.0802 -0.0217,-0.182757 -0.0215,-0.268914 -2.3e-4,-1.855876 -1.36452,-4.644025 -3.04733,-6.227728 -0.26902,-0.25269 -0.53679,-0.46493 -0.79634,-0.63118 l -0.11657,-0.0723 c -0.15569,-0.0925 -0.30719,-0.22437 -0.45303,-0.28082 l -13.24119,-8.20783 -0.39497,-0.24483 -0.17463,-0.10825 c -0.25955,-0.16625 -0.52733,-0.37849 -0.79635,-0.63118 -1.6828,-1.5837 -3.04708,-4.37185 -3.04732,-6.22773 1.8e-4,-0.0862 0.004,-0.16943 0.01,-0.24964 l -0.031,-0.0193 v 4.73192 c -0.006,0.0802 0.0217,0.18276 0.0215,0.26892 2.3e-4,1.85587 1.36452,4.64402 3.04732,6.22772 0.26903,0.25269 0.5368,0.46493 0.79634,0.63119 l 0.11658,0.0723 c 0.15569,0.0925 0.30718,0.22436 0.45303,0.28082 l 13.24118,8.207825 0.45303,0.280821 0.11658,0.07226 z" />
    <path
       id="path1534"
       style="fill:#808080;fill-rule:evenodd;stroke-width:0.241772"
       d="m 76.9713,41.496195 c -0.78312,-0.48151 -2.57677,-1.59727 -3.86515,-2.3959 0.25955,0.16625 0.52732,0.37849 0.79634,0.63119 1.68281,1.5837 3.04709,4.37184 3.04733,6.22772 -1.9e-4,0.0862 -0.003,0.16943 -0.01,0.24964 l 0.0311,0.0193 z m 0,0 c 0.006,-0.0802 -0.0217,-0.18276 -0.0215,-0.26891 -2.3e-4,-1.85588 -1.36452,-4.64403 -3.04732,-6.22773 -0.26902,-0.25269 -0.5368,-0.46493 -0.79635,-0.63118 l -0.11657,-0.0723 c -0.15569,-0.0925 -0.30719,-0.22437 -0.45303,-0.28082 l -13.24118,-8.20783 -0.39498,-0.24483 -0.17462,-0.10825 c -0.25955,-0.16625 -0.52733,-0.37849 -0.79636,-0.63118 -1.6828,-1.5837 -3.04708,-4.37185 -3.04732,-6.22773 1.9e-4,-0.0862 0.004,-0.16943 0.01,-0.24964 l -0.031,-0.0193 v 4.73192 c -0.006,0.0802 0.0217,0.18276 0.0215,0.26892 2.4e-4,1.85587 1.36452,4.64402 3.04732,6.22772 0.26903,0.25269 0.53681,0.46493 0.79636,0.63119 l 0.11656,0.0722 c 0.15569,0.0925 0.30719,0.22437 0.45304,0.28082 l 13.24118,8.20783 0.45303,0.28082 0.11657,0.0723 z" />
    <path
       id="path3420"
       style="fill:#ffb380;stroke-width:0.196381"
       d="m 76.09821,94.7634 v 3.21403 H 63.05044 V 94.7634 Z" />
    <path
       id="path3422"
       style="fill:#87cdde;stroke-width:0.174743"
       d="m 75.67145,94.9112 c -0.0105,-0.009 -0.012,-0.008 -0.018,-0.0126 -2e-5,0.002 10e-6,0.004 0,0.005 0.004,0.003 0.007,0.006 0.0101,0.009 0.003,-5e-4 0.005,-7.4e-4 0.008,-0.002 z m -0.76212,3.03056 c -1.6e-4,-9.4e-4 -4.8e-4,-0.002 -6.7e-4,-0.003 3e-5,0.004 -3e-5,0.006 0,0.009 3.3e-4,-0.002 3.3e-4,-0.005 6.7e-4,-0.007 z M 73.9929,94.7634 h -0.025 c 0.002,0.0722 0.004,0.1444 0.006,0.21657 0.003,0.003 0.006,0.006 0.009,0.009 0.003,-0.0753 0.006,-0.15026 0.01,-0.22535 z m -2.15668,2.32329 c 6.2e-4,-0.17554 -3.2e-4,-0.3514 -0.002,-0.52778 -0.004,0.038 -0.0119,0.0982 -0.0158,0.13024 l 10e-4,0.0551 c 0.009,0.57824 0.0105,0.6892 0.012,0.78532 0.002,-0.14795 0.005,-0.29545 0.005,-0.4429 z M 70.01696,97.97737 68.876,96.21795 69.81931,94.7634 h -6.76887 v 3.21397 z" />
    <path
       id="path3424"
       style="fill:#ffb380;stroke-width:0.241772"
       d="m 76.94577,108.3945 v 3.21403 H 57.16906 v -3.21403 z" />
    <path
       id="path3426"
       style="fill:#87cdde;stroke-width:0.2101"
       d="m 75.41415,108.5423 c -0.0152,-0.009 -0.0174,-0.008 -0.0261,-0.0126 -3e-5,0.002 2e-5,0.004 0,0.005 0.005,0.003 0.01,0.006 0.0146,0.009 0.004,-5e-4 0.008,-7.5e-4 0.0114,-0.002 z m -1.10172,3.03056 c -2.4e-4,-9.4e-4 -7.1e-4,-0.002 -9.8e-4,-0.003 4e-5,0.004 -4e-5,0.006 0,0.009 4.7e-4,-0.002 4.7e-4,-0.005 9.8e-4,-0.007 z m -1.32481,-3.17836 h -0.0361 c 0.003,0.0722 0.006,0.14439 0.009,0.21657 0.004,0.003 0.009,0.006 0.0137,0.008 0.004,-0.0752 0.009,-0.15027 0.0137,-0.22535 z m -3.11772,2.32329 c 8.8e-4,-0.17554 -4.7e-4,-0.3514 -0.004,-0.52778 -0.006,0.0379 -0.0173,0.0982 -0.0228,0.13024 l 0.002,0.0551 c 0.0128,0.57824 0.0152,0.6892 0.0173,0.78532 0.004,-0.14795 0.007,-0.29546 0.008,-0.4429 z m -2.62996,0.89068 -1.64937,-1.75942 1.36366,-1.45455 h -9.78517 v 3.21397 z" />
    <path
       id="path3428"
       style="fill:#ffb380;stroke-width:0.241772"
       d="m 54.95389,113.7007 v 3.21403 h 19.77672 v -3.21403 z" />
    <path
       id="path3430"
       style="fill:#87cdde;stroke-width:0.2101"
       d="m 56.48552,113.8485 c 0.0152,-0.009 0.0174,-0.008 0.0261,-0.0127 3e-5,0.002 -3e-5,0.004 0,0.005 -0.004,0.003 -0.01,0.006 -0.0146,0.009 -0.004,-5e-4 -0.008,-7.6e-4 -0.0114,-0.002 z m 1.10172,3.03056 c 2.3e-4,-9.4e-4 7e-4,-0.002 8.8e-4,-0.003 -4e-5,0.004 4e-5,0.006 0,0.009 -4.7e-4,-0.002 -4.7e-4,-0.005 -8.8e-4,-0.007 z m 1.3248,-3.17836 h 0.0361 c -0.003,0.0722 -0.005,0.14439 -0.009,0.21657 -0.004,0.003 -0.009,0.006 -0.0137,0.008 -0.004,-0.0752 -0.009,-0.15027 -0.0137,-0.22535 z m 3.11772,2.32328 c -8.8e-4,-0.17553 4.7e-4,-0.35139 0.004,-0.52777 0.006,0.0379 0.0173,0.0982 0.0228,0.13024 l -0.002,0.0551 c -0.0128,0.57825 -0.0152,0.68921 -0.0173,0.78532 -0.004,-0.14794 -0.007,-0.29545 -0.008,-0.4429 z m 2.62996,0.89068 1.64937,-1.75941 -1.36366,-1.45455 h 9.78518 v 3.21396 z" />
    <path
       id="path3432"
       style="fill:#cdde87;stroke-width:0.186061"
       d="M 68.70886,118.86396 V 122.078 H 56.99632 v -3.21404 z" />
    <path
       id="path3434"
       style="fill:#ff8080;stroke-width:0.168364"
       d="m 68.71274,119.01183 c -0.01,-0.009 -0.0112,-0.008 -0.0167,-0.0126 -3e-5,0.002 1e-5,0.004 0,0.005 0.003,0.003 0.007,0.006 0.009,0.009 0.003,-5e-4 0.005,-7.5e-4 0.008,-0.002 z m -0.70749,3.03056 c -1.4e-4,-9.5e-4 -4.3e-4,-0.002 -6e-4,-0.003 3e-5,0.004 -2e-5,0.006 0,0.009 3.1e-4,-0.002 3.1e-4,-0.005 6e-4,-0.007 z m -0.85074,-3.17835 h -0.0232 c 0.003,0.0722 0.003,0.14439 0.006,0.21657 0.003,0.003 0.006,0.006 0.009,0.008 0.003,-0.0753 0.006,-0.15027 0.009,-0.22535 z m -2.0021,2.32328 c 5e-4,-0.17554 -3e-4,-0.3514 -0.003,-0.52778 -0.004,0.0379 -0.0111,0.0982 -0.0147,0.13024 l 0.002,0.0551 c 0.008,0.57826 0.01,0.6892 0.0112,0.78532 0.003,-0.14794 0.004,-0.29545 0.005,-0.4429 z m -1.68888,0.89068 -1.05917,-1.75941 0.8757,-1.45455 h -6.28374 v 3.21396 z" />
    <path
       id="path3436"
       style="fill:#cdde87;stroke-width:0.198768"
       d="m 75.93324,103.39352 v 3.21403 H 62.56621 v -3.21403 z" />
    <path
       id="path3438"
       style="fill:#ff8080;stroke-width:0.179862"
       d="m 75.93768,103.54138 c -0.0112,-0.009 -0.0128,-0.008 -0.0191,-0.0127 -2e-5,0.002 2e-5,0.003 0,0.005 0.004,0.003 0.007,0.006 0.0107,0.009 0.003,-4.9e-4 0.006,-7.4e-4 0.008,-0.002 z m -0.80743,3.03056 c -1.7e-4,-9.4e-4 -5.1e-4,-0.002 -6.9e-4,-0.003 3e-5,0.004 -3e-5,0.006 0,0.009 3.4e-4,-0.002 3.4e-4,-0.004 6.9e-4,-0.007 z m -0.97093,-3.17835 h -0.0264 c 0.003,0.0722 0.004,0.14439 0.007,0.21657 0.003,0.003 0.007,0.006 0.01,0.009 0.003,-0.0753 0.007,-0.15027 0.0101,-0.22536 z m -2.28491,2.32328 c 5.7e-4,-0.17553 -3.4e-4,-0.35139 -0.002,-0.52778 -0.005,0.038 -0.0126,0.0982 -0.0167,0.13024 l 0.001,0.0551 c 0.009,0.57825 0.0111,0.6892 0.0127,0.78532 0.002,-0.14794 0.005,-0.29545 0.006,-0.4429 z m -1.92744,0.89068 -1.2088,-1.7594 0.9994,-1.45456 h -7.17136 v 3.21396 z" />
    <path
       id="path3440"
       style="fill:#cdde87;stroke-width:0.242095"
       d="m 77.00251,90.05074 v 3.21402 H 57.17299 v -3.21402 z" />
    <path
       id="path3442"
       style="fill:#ff8080;stroke-width:0.219069"
       d="m 77.00924,90.1986 c -0.0165,-0.009 -0.0189,-0.008 -0.0283,-0.0126 -3e-5,0.002 3e-5,0.004 0,0.005 0.005,0.003 0.0107,0.006 0.0159,0.009 0.004,-4.9e-4 0.008,-7.5e-4 0.0124,-0.002 z m -1.1978,3.03056 c -2.6e-4,-9.4e-4 -7.6e-4,-0.002 -0.001,-0.003 4e-5,0.004 -4e-5,0.006 0,0.009 5.1e-4,-0.002 5.1e-4,-0.004 0.001,-0.007 z M 74.3711,90.0508 h -0.0392 c 0.004,0.0722 0.006,0.1444 0.01,0.21658 0.005,0.003 0.0101,0.006 0.0149,0.008 0.004,-0.0753 0.01,-0.15027 0.0149,-0.22536 z m -3.38962,2.32329 c 8.5e-4,-0.17554 -5.2e-4,-0.35139 -0.004,-0.52778 -0.007,0.0379 -0.0187,0.0982 -0.0248,0.13024 l 0.002,0.0551 c 0.0139,0.57826 0.0165,0.68921 0.0188,0.78532 0.004,-0.14793 0.008,-0.29545 0.009,-0.44289 z m -2.85933,0.89067 -1.7932,-1.7594 1.48259,-1.45456 H 57.17299 v 3.21396 z" />
    <path
       id="path1902"
       style="fill:#808080;fill-rule:evenodd;stroke-width:0.241772"
       d="m 76.91467,106.15977 c -0.78312,-0.48151 -2.57677,-1.59726 -3.86515,-2.39589 0.25955,0.16625 0.52732,0.37849 0.79634,0.63118 1.68281,1.58371 3.04709,4.37184 3.04733,6.22772 -1.9e-4,0.0862 -0.003,0.16943 -0.01,0.24965 l 0.0311,0.0192 z m 0,0 c 0.006,-0.0802 -0.0217,-0.18275 -0.0215,-0.26891 -2.3e-4,-1.85588 -1.36451,-4.64403 -3.04732,-6.22772 -0.26902,-0.2527 -0.5368,-0.46494 -0.79635,-0.63119 l -0.11657,-0.0723 C 72.77724,98.86725 72.62575,98.73529 72.4799,98.67884 L 59.23872,90.47101 58.84375,90.22617 58.66911,90.11793 c -0.25955,-0.16626 -0.52732,-0.37849 -0.79634,-0.63119 -1.6828,-1.5837 -3.04709,-4.371854 -3.04732,-6.227726 1.8e-4,-0.08615 0.004,-0.169436 0.01,-0.249645 l -0.031,-0.01926 v 4.731931 c -0.006,0.0802 0.0217,0.18275 0.0215,0.2689 2.3e-4,1.85588 1.36453,4.64403 3.04733,6.22773 0.26902,0.25269 0.5368,0.46494 0.79634,0.63119 l 0.11658,0.0722 c 0.15568,0.0925 0.30718,0.22436 0.45302,0.28082 l 13.24119,8.20783 0.45303,0.28082 0.11657,0.0722 z" />
    <path
       id="path1892"
       style="fill:#808080;fill-rule:evenodd;stroke-width:0.241772"
       d="m 77.00239,87.81618 c -0.78312,-0.48151 -2.57677,-1.597264 -3.86516,-2.395894 0.25955,0.16625 0.52733,0.37849 0.79635,0.63118 1.6828,1.583704 3.04709,4.371844 3.04732,6.227724 -1.8e-4,0.0862 -0.003,0.16944 -0.01,0.24965 l 0.0311,0.0192 z m 0,0 c 0.006,-0.0802 -0.0217,-0.18275 -0.0215,-0.26891 -2.4e-4,-1.855884 -1.36452,-4.64403 -3.04733,-6.227731 -0.26902,-0.252691 -0.5368,-0.464932 -0.79634,-0.631183 l -0.11658,-0.07226 c -0.15568,-0.09246 -0.30718,-0.224368 -0.45303,-0.280821 L 59.32643,72.127447 58.93146,71.882614 58.75683,71.774368 c -0.25956,-0.166255 -0.52733,-0.378492 -0.79635,-0.631185 -1.6828,-1.583701 -3.04709,-4.371848 -3.04732,-6.227725 1.8e-4,-0.08615 0.004,-0.169436 0.01,-0.249646 l -0.0311,-0.01926 v 4.731926 c -0.006,0.08021 0.0217,0.182758 0.0215,0.268914 2.3e-4,1.855877 1.36452,4.644022 3.04732,6.227723 0.26902,0.252694 0.5368,0.464933 0.79635,0.631187 l 0.11657,0.07225 c 0.15569,0.09246 0.30719,0.224366 0.45303,0.280821 l 13.24118,8.207823 0.45303,0.28082 0.11658,0.0723 z" />
    <path
       id="path3446"
       style="fill:#87cdde;stroke-width:0.220459"
       d="m 113.18112,38.794015 c -0.0168,-0.009 -0.0192,-0.008 -0.0287,-0.0126 -3e-5,0.002 3e-5,0.004 0,0.005 0.005,0.003 0.0109,0.006 0.0161,0.009 0.004,-5e-4 0.008,-7.6e-4 0.0126,-0.002 z m -1.21304,3.03056 c -2.6e-4,-9.4e-4 -7.8e-4,-0.002 -0.001,-0.003 4e-5,0.004 -5e-5,0.006 0,0.009 5.1e-4,-0.002 5.1e-4,-0.005 0.001,-0.007 z m -1.45867,-3.17836 h -0.0398 c 0.004,0.0722 0.006,0.14439 0.01,0.21657 0.005,0.003 0.0102,0.006 0.0151,0.008 0.004,-0.0752 0.01,-0.15027 0.0151,-0.22535 z m -3.43275,2.32328 c 9.7e-4,-0.17553 -5.2e-4,-0.35139 -0.004,-0.52777 -0.007,0.0379 -0.019,0.0982 -0.0251,0.13024 l 0.002,0.0551 c 0.0141,0.57825 0.0168,0.6892 0.0191,0.78532 0.004,-0.14795 0.008,-0.29545 0.009,-0.4429 z m -2.8957,0.89068 -1.81603,-1.75941 1.50145,-1.45455 H 93.092472 v 3.21396 z" />
    <path
       id="path1906"
       style="fill:#808080;fill-rule:evenodd;stroke-width:0.241772"
       d="m 77.03347,135.87122 c -0.78312,-0.48151 -2.57677,-1.59726 -3.86515,-2.39589 0.25955,0.16625 0.52732,0.37848 0.79634,0.63118 1.68281,1.5837 3.04709,4.37184 3.04733,6.22772 -1.9e-4,0.0862 -0.003,0.16943 -0.01,0.24964 l 0.0311,0.0193 z m 0,0 c 0.006,-0.0802 -0.0217,-0.18275 -0.0215,-0.26891 -2.3e-4,-1.85588 -1.36452,-4.64403 -3.04732,-6.22773 -0.26902,-0.25269 -0.5368,-0.46494 -0.79635,-0.63119 l -0.11657,-0.0722 c -0.15569,-0.0924 -0.30719,-0.22436 -0.45303,-0.28081 l -13.24119,-8.20783 -0.39497,-0.24484 -0.17462,-0.10824 c -0.25956,-0.16626 -0.52733,-0.37849 -0.79635,-0.63119 -1.68281,-1.5837 -3.04709,-4.37184 -3.04733,-6.22772 1.9e-4,-0.0862 0.004,-0.16944 0.01,-0.24964 l -0.0311,-0.0193 v 4.73193 c -0.006,0.0802 0.0217,0.18275 0.0215,0.26891 2.4e-4,1.85588 1.36452,4.64402 3.04732,6.22772 0.26903,0.25269 0.53681,0.46494 0.79636,0.63119 l 0.11656,0.0722 c 0.15569,0.0924 0.30719,0.22436 0.45303,0.28082 l 13.24119,8.20783 0.45303,0.28082 0.11657,0.0722 z" />
    <path
       id="path3540"
       style="fill:#ffb380;stroke-width:0.241772"
       d="m 93.171574,43.358645 h 3.958415 c 0.0048,0.0749 0.01018,0.1498 0.01371,0.22486 0.0044,-0.003 0.0092,-0.005 0.01371,-0.008 0.0031,-0.0722 0.0056,-0.14436 0.0087,-0.21657 h 5.997281 l 1.36366,1.45455 -1.64938,1.75942 h -9.706091 z m 1.531891,0.14731 v 4.8e-4 c 4.47e-4,-2.7e-4 4.89e-4,-2.2e-4 8.84e-4,-4.8e-4 0.0035,9.2e-4 0.007,0.002 0.01052,0.002 0.0048,-0.004 0.0098,-0.006 0.01463,-0.009 -2.5e-5,-9.5e-4 2.7e-5,-0.003 0,-0.005 -0.0084,0.004 -0.0111,0.004 -0.02514,0.0122 -2.93e-4,-8e-5 -6.25e-4,9e-5 -8.84e-4,0 z m 1.101718,3.03104 c 5.06e-4,0.002 4.47e-4,0.004 8.85e-4,0.006 3.9e-5,-0.004 -4e-5,-0.005 0,-0.009 -2.72e-4,9.5e-4 -6.82e-4,0.002 -8.85e-4,0.003 z m 4.441617,-0.85507 c 8.9e-4,0.14745 0.005,0.29495 0.008,0.4429 0.002,-0.0961 0.004,-0.20707 0.0169,-0.78532 l 0.002,-0.0551 c -0.006,-0.032 -0.0167,-0.0923 -0.0229,-0.13024 -0.003,0.17638 -0.004,0.35224 -0.003,0.52778 z" />
    <path
       id="path3542"
       style="fill:#ff8080;stroke-width:0.223374"
       d="m 114.08975,48.457365 c -0.0172,-0.009 -0.0197,-0.008 -0.0295,-0.0127 -3e-5,0.002 3e-5,0.003 0,0.005 0.006,0.003 0.0112,0.006 0.0165,0.009 0.004,-5e-4 0.009,-7.5e-4 0.0129,-0.002 z m -1.24534,3.03056 c -2.6e-4,-10e-4 -7.9e-4,-0.002 -10e-4,-0.003 5e-5,0.004 -4e-5,0.005 0,0.009 5.3e-4,-0.002 5.3e-4,-0.004 10e-4,-0.006 z m -1.4975,-3.17835 h -0.0408 c 0.004,0.0722 0.006,0.14439 0.01,0.21657 0.005,0.003 0.0105,0.006 0.0155,0.009 0.004,-0.0753 0.0101,-0.15027 0.0155,-0.22535 z m -3.52414,2.32328 c 8.8e-4,-0.17554 -5.3e-4,-0.3514 -0.004,-0.52778 -0.007,0.038 -0.0195,0.0982 -0.0258,0.13024 l 0.002,0.0551 c 0.0145,0.57825 0.0172,0.6892 0.0195,0.78532 0.004,-0.14794 0.008,-0.29545 0.009,-0.4429 z m -2.97281,0.89068 -1.86437,-1.75941 1.54143,-1.45455 H 93.466252 v 3.21396 z" />
    <text
       xml:space="preserve"
       transform="matrix(0.234058,0,0,0.24974183,80.742982,-3.311185)"
       id="text17263"
       style="font-style:normal;font-variant:normal;font-weight:normal;font-stretch:normal;font-size:14.6667px;font-family:Arial;-inkscape-font-specification:Arial;white-space:pre;shape-inside:url(#rect17265);fill:#000000;fill-opacity:1;stroke:none"><tspan
         x="116.28711"
         y="175.58414"
         id="tspan247">T - Thymin</tspan></text>
    <text
       xml:space="preserve"
       transform="matrix(0.234058,0,0,0.24974183,27.68297,13.217685)"
       id="text26561"
       style="font-style:normal;font-variant:normal;font-weight:normal;font-stretch:normal;font-size:14.6667px;font-family:Arial;-inkscape-font-specification:Arial;white-space:pre;shape-inside:url(#rect26563);fill:#000000;fill-opacity:1;stroke:none"><tspan
         x="343.31055"
         y="131.43766"
         id="tspan249">A - Adenin</tspan></text>
    <text
       xml:space="preserve"
       transform="scale(0.26458333)"
       id="text33255"
       style="font-style:normal;font-weight:normal;font-size:40px;font-family:sans-serif;white-space:pre;shape-inside:url(#rect33257);fill:#000000;fill-opacity:1;stroke:none" />
    <text
       xml:space="preserve"
       transform="matrix(0.234058,0,0,0.24974183,32.56739,-8.153165)"
       id="text35241"
       style="font-style:normal;font-variant:normal;font-weight:normal;font-stretch:normal;font-size:14.6667px;font-family:Arial;-inkscape-font-specification:Arial;white-space:pre;shape-inside:url(#rect35243);fill:#000000;fill-opacity:1;stroke:none"><tspan
         x="320.57422"
         y="237.53727"
         id="tspan251">G - Guanin</tspan></text>
    <text
       xml:space="preserve"
       transform="matrix(0.234058,0,0,0.24974183,20.69348,-8.278505)"
       id="text38055"
       style="font-style:normal;font-variant:normal;font-weight:normal;font-stretch:normal;font-size:14.6667px;font-family:Arial;-inkscape-font-specification:Arial;white-space:pre;shape-inside:url(#rect38057);fill:#000000;fill-opacity:1;stroke:none"><tspan
         x="371.34961"
         y="261.03141"
         id="tspan253">C - Cytosin</tspan></text>
  </g>
</svg>
