<?xml version="1.0" encoding="UTF-8" standalone="no"?>
<!-- Created with Inkscape (http://www.inkscape.org/) -->

<svg
   width="210mm"
   height="297mm"
   viewBox="0 0 210 297"
   version="1.1"
   id="svg5"
   inkscape:version="1.1.1 (3bf5ae0d25, 2021-09-20)"
   sodipodi:docname="DNA-figure.svg"
   xmlns:inkscape="http://www.inkscape.org/namespaces/inkscape"
   xmlns:sodipodi="http://sodipodi.sourceforge.net/DTD/sodipodi-0.dtd"
   xmlns="http://www.w3.org/2000/svg"
   xmlns:svg="http://www.w3.org/2000/svg">
  <sodipodi:namedview
     id="namedview7"
     pagecolor="#ffffff"
     bordercolor="#666666"
     borderopacity="1.0"
     inkscape:pageshadow="2"
     inkscape:pageopacity="0.0"
     inkscape:pagecheckerboard="0"
     inkscape:document-units="mm"
     showgrid="false"
     showguides="false"
     inkscape:guide-bbox="true"
     inkscape:zoom="0.93303299"
     inkscape:rotation="90"
     inkscape:cx="377.80015"
     inkscape:cy="305.99132"
     inkscape:window-width="1920"
     inkscape:window-height="1001"
     inkscape:window-x="-9"
     inkscape:window-y="-9"
     inkscape:window-maximized="1"
     inkscape:current-layer="layer1">
    <sodipodi:guide
       position="53.097252,227.62243"
       orientation="1,0"
       id="guide9" />
    <sodipodi:guide
       position="66.808914,223.37209"
       orientation="1,0"
       id="guide11" />
    <sodipodi:guide
       position="45.014664,287.0122"
       orientation="0,-1"
       id="guide15" />
    <sodipodi:guide
       position="48.885041,262.01759"
       orientation="0,-1"
       id="guide17" />
    <sodipodi:guide
       position="61.498539,274.46398"
       orientation="0.70710678,-0.70710678"
       id="guide151" />
    <sodipodi:guide
       position="57.459951,166.65104"
       orientation="0,-1"
       id="guide2496" />
    <sodipodi:guide
       position="56.502285,227.83525"
       orientation="1,0"
       id="guide2498" />
  </sodipodi:namedview>
  <defs
     id="defs2">
    <rect
       x="371.35056"
       y="247.81966"
       width="106.85802"
       height="185.67528"
       id="rect38057" />
    <rect
       x="320.57405"
       y="224.32605"
       width="128.83591"
       height="93.216569"
       id="rect35243" />
    <rect
       x="345.58338"
       y="195.52744"
       width="119.74161"
       height="125.80448"
       id="rect33257" />
    <rect
       x="343.3098"
       y="118.22589"
       width="128.07805"
       height="65.933671"
       id="rect26563" />
    <rect
       x="116.28742"
       y="162.37368"
       width="122.71806"
       height="106.10557"
       id="rect17265" />
    <rect
       x="123.78983"
       y="160.23013"
       width="61.626974"
       height="71.272935"
       id="rect10026" />
  </defs>
  <g
     inkscape:label="Lag 1"
     inkscape:groupmode="layer"
     id="layer1">
    <path
       id="path1876"
       style="fill:#b3b3b3;fill-rule:evenodd;stroke-width:0.264583"
       d="m 95.779292,118.31057 c -0.510127,-0.88525 -1.692187,-2.91283 -2.538279,-4.36924 0.176131,0.2934 0.400982,0.59609 0.668693,0.9002 1.677816,1.90227 4.631654,3.44448 6.597824,3.44475 0.0913,-2.1e-4 0.1795,-0.004 0.26448,-0.0109 l 0.0204,0.0351 z m 0,0 c -0.08497,0.007 -0.193618,-0.0245 -0.284895,-0.0243 -1.966166,-2.7e-4 -4.920007,-1.54248 -6.597823,-3.44475 -0.267708,-0.30411 -0.492562,-0.60681 -0.668693,-0.90021 l -0.07655,-0.13177 c -0.09795,-0.17599 -0.237701,-0.34725 -0.297509,-0.51211 L 79.158224,98.329359 78.898841,97.882874 78.784162,97.685471 c -0.176135,-0.293402 -0.400984,-0.596101 -0.668694,-0.900205 -1.677816,-1.902272 -4.631656,-3.444483 -6.597823,-3.44475 -0.09127,2.09e-4 -0.179505,0.0038 -0.264481,0.01085 l -0.02041,-0.03514 h 5.013132 c 0.08498,-0.007 0.193619,0.0245 0.284895,0.02429 1.966166,2.64e-4 4.920004,1.542478 6.59782,3.44475 0.267711,0.304107 0.492563,0.606806 0.668697,0.900205 l 0.07654,0.131773 c 0.09795,0.175993 0.2377,0.347247 0.29751,0.512115 l 8.695598,14.968081 0.297509,0.51211 0.07655,0.13177 z" />
    <path
       id="rect3116"
       style="fill:#ffb380;stroke-width:0.264583"
       d="m 71.5523,93.351366 h 3.405033 V 115.70732 H 71.5523 Z" />
    <path
       id="rect41"
       style="fill:#0000ff;fill-rule:evenodd;stroke-width:0.264583"
       d="m 35.800266,241.76811 c -0.510127,0.88525 -1.692187,2.91283 -2.538279,4.36924 0.176131,-0.2934 0.400982,-0.5961 0.668693,-0.9002 1.677816,-1.90228 4.631654,-3.44449 6.59782,-3.44475 0.09128,2e-4 0.179505,0.004 0.264482,0.0109 l 0.02041,-0.0351 z m 0,0 c -0.08497,-0.007 -0.193618,0.0245 -0.284895,0.0243 -1.966166,2.6e-4 -4.920007,1.54247 -6.597823,3.44475 -0.267708,0.3041 -0.492562,0.6068 -0.668693,0.9002 l -0.07655,0.13177 c -0.09795,0.176 -0.237701,0.34725 -0.297509,0.51212 l -8.695598,14.96808 -0.259383,0.44648 -0.114679,0.1974 c -0.176135,0.29341 -0.400984,0.5961 -0.668694,0.90021 -1.677816,1.90227 -4.631656,3.44448 -6.597823,3.44475 -0.09127,-2.1e-4 -0.179505,-0.004 -0.264481,-0.0109 l -0.02041,0.0351 h 5.013132 c 0.08498,0.007 0.193619,-0.0245 0.284895,-0.0243 1.966166,-2.7e-4 4.920004,-1.54248 6.59782,-3.44475 0.267711,-0.30411 0.492563,-0.60681 0.668697,-0.90021 l 0.07654,-0.13177 c 0.09795,-0.17599 0.2377,-0.34725 0.29751,-0.51211 l 8.695598,-14.96808 0.297509,-0.51212 0.07655,-0.13177 z" />
    <path
       id="path1536"
       style="fill:#b3b3b3;fill-rule:evenodd;stroke-width:0.264583"
       d="m 76.345591,118.21142 c -0.510127,-0.88526 -1.692187,-2.91283 -2.538279,-4.36925 0.176131,0.2934 0.400982,0.5961 0.668693,0.90021 1.677816,1.90227 4.631654,3.44448 6.59782,3.44475 0.09128,-2.1e-4 0.179505,-0.004 0.264482,-0.0108 l 0.02041,0.0351 z m 0,0 c -0.08497,0.007 -0.193618,-0.0245 -0.284895,-0.0243 -1.966166,-2.7e-4 -4.920007,-1.54248 -6.597823,-3.44475 -0.267708,-0.30411 -0.492562,-0.60681 -0.668693,-0.90021 l -0.07655,-0.13177 c -0.09795,-0.17599 -0.237701,-0.34725 -0.297509,-0.51212 L 59.724523,98.230207 59.46514,97.783722 59.350461,97.586319 c -0.176135,-0.293402 -0.400984,-0.596101 -0.668694,-0.900205 -1.677816,-1.902272 -4.631656,-3.444483 -6.597823,-3.44475 -0.09127,2.09e-4 -0.179505,0.0038 -0.264481,0.01085 l -0.02041,-0.03514 h 5.013132 c 0.08498,-0.007 0.193619,0.0245 0.284895,0.02429 1.966166,2.64e-4 4.920004,1.542478 6.59782,3.44475 0.267711,0.304107 0.492563,0.606806 0.668697,0.900205 l 0.07654,0.131773 c 0.09795,0.175993 0.2377,0.347247 0.29751,0.512115 l 8.695598,14.968073 0.297509,0.51212 0.07655,0.13177 z" />
    <path
       id="rect2626"
       style="fill:#87cdde;stroke-width:0.229922"
       d="m 71.708881,95.082743 c -0.01,0.0172 -0.0087,0.01969 -0.01344,0.02946 0.0019,3e-5 0.0035,-2.9e-5 0.0052,0 0.0034,-0.0055 0.0062,-0.01116 0.0098,-0.01654 -5.29e-4,-0.0043 -7.94e-4,-0.0087 -0.0016,-0.01291 z m 3.210655,1.245402 c -0.0011,2.65e-4 -0.0021,7.94e-4 -0.0031,0.0011 0.0042,-4.5e-5 0.0056,4.5e-5 0.0098,0 -0.0021,-5.29e-4 -0.0045,-5.29e-4 -0.0067,-0.0011 z M 71.5523,97.825729 v 0.04082 c 0.07649,-0.0035 0.152977,-0.0063 0.229444,-0.0098 0.0032,-0.0051 0.0059,-0.0105 0.0093,-0.0155 -0.07975,-0.004 -0.159197,-0.01013 -0.238744,-0.0155 z m 2.46135,3.524331 c -0.185968,-0.001 -0.372277,5.3e-4 -0.559141,0.004 0.04021,0.007 0.104055,0.0195 0.137977,0.0258 l 0.05839,-0.002 c 0.612619,-0.0145 0.73016,-0.0172 0.83199,-0.0196 -0.156734,-0.004 -0.313007,-0.008 -0.46922,-0.009 z m 0.94361,2.97295 -1.863968,1.86448 -1.540992,-1.54151 v 11.06134 h 3.40496 z" />
    <path
       id="path1758"
       style="fill:#b3b3b3;fill-rule:evenodd;stroke-width:0.264583"
       d="m 44.868502,118.34571 c -0.51012,-0.88525 -1.69218,-2.91283 -2.53828,-4.36924 0.17613,0.2934 0.40099,0.5961 0.6687,0.9002 1.67781,1.90227 4.63165,3.44449 6.59782,3.44475 0.0913,-2.1e-4 0.1795,-0.004 0.26448,-0.0109 l 0.0204,0.0351 z m 0,0 c -0.085,0.007 -0.19362,-0.0245 -0.28489,-0.0243 -1.96617,-2.6e-4 -4.92001,-1.54248 -6.597826,-3.44475 -0.267708,-0.30411 -0.492562,-0.6068 -0.668693,-0.9002 l -0.07655,-0.13178 c -0.09795,-0.17599 -0.237701,-0.34725 -0.297509,-0.51211 L 28.247436,98.364501 27.988053,97.918016 27.873374,97.720613 c -0.176135,-0.293402 -0.400984,-0.596101 -0.668694,-0.900205 -1.677816,-1.902272 -4.631656,-3.444483 -6.597823,-3.444751 -0.09127,2.09e-4 -0.179505,0.0038 -0.264481,0.01085 l -0.02041,-0.03514 h 5.013132 c 0.08498,-0.007 0.193619,0.0245 0.284895,0.02429 1.966166,2.64e-4 4.920004,1.542479 6.59782,3.444751 0.267711,0.304107 0.492563,0.606806 0.668697,0.900205 l 0.07654,0.131773 c 0.09795,0.175993 0.2377,0.347247 0.29751,0.512115 l 8.695602,14.968079 0.29751,0.51211 0.0766,0.13178 z" />
    <path
       id="path1874"
       style="fill:#808080;fill-rule:evenodd;stroke-width:0.264583"
       d="m 69.41504,93.351368 c -0.510127,0.885252 -1.692187,2.912828 -2.538279,4.369242 0.176131,-0.293399 0.400982,-0.596098 0.668693,-0.900203 1.677816,-1.902273 4.631654,-3.444485 6.59782,-3.444751 0.09128,2.08e-4 0.179505,0.0038 0.264482,0.01085 l 0.02041,-0.03514 z m 0,0 c -0.08497,-0.007 -0.193618,0.0245 -0.284895,0.02429 -1.966166,2.64e-4 -4.920007,1.542477 -6.597823,3.444751 -0.267708,0.304105 -0.492562,0.606804 -0.668693,0.900203 l -0.07655,0.131775 c -0.09795,0.175992 -0.237701,0.347247 -0.297509,0.512113 l -8.695598,14.96808 -0.259383,0.44648 -0.114679,0.19741 c -0.176135,0.2934 -0.400984,0.5961 -0.668694,0.9002 -1.677816,1.90227 -4.631656,3.44448 -6.597823,3.44475 -0.09127,-2.1e-4 -0.179505,-0.004 -0.264481,-0.0109 l -0.02041,0.0351 h 5.013132 c 0.08498,0.007 0.193619,-0.0245 0.284895,-0.0243 1.966166,-2.6e-4 4.920004,-1.54248 6.59782,-3.44475 0.267711,-0.30411 0.492563,-0.60681 0.668697,-0.9002 l 0.07654,-0.13178 c 0.09795,-0.17599 0.2377,-0.34724 0.29751,-0.51211 l 8.695598,-14.96808 0.297509,-0.512113 0.07655,-0.131775 z" />
    <path
       id="path1878"
       style="fill:#808080;fill-rule:evenodd;stroke-width:0.264583"
       d="m 69.41504,93.351368 c -0.510127,0.885252 -1.692187,2.912828 -2.538279,4.369242 0.176131,-0.293399 0.400982,-0.596098 0.668693,-0.900203 1.677816,-1.902273 4.631654,-3.444485 6.59782,-3.444751 0.09128,2.08e-4 0.179505,0.0038 0.264482,0.01085 l 0.02041,-0.03514 z m 0,0 c -0.08497,-0.007 -0.193618,0.0245 -0.284895,0.02429 -1.966166,2.64e-4 -4.920007,1.542477 -6.597823,3.444751 -0.267708,0.304105 -0.492562,0.606804 -0.668693,0.900203 l -0.07655,0.131775 c -0.09795,0.175992 -0.237701,0.347247 -0.297509,0.512113 l -8.695598,14.96808 -0.259383,0.44648 -0.114679,0.19741 c -0.176135,0.2934 -0.400984,0.5961 -0.668694,0.9002 -1.677816,1.90227 -4.631656,3.44448 -6.597823,3.44475 -0.09127,-2.1e-4 -0.179505,-0.004 -0.264481,-0.0109 l -0.02041,0.0351 h 5.013132 c 0.08498,0.007 0.193619,-0.0245 0.284895,-0.0243 1.966166,-2.6e-4 4.920004,-1.54248 6.59782,-3.44475 0.267711,-0.30411 0.492563,-0.60681 0.668697,-0.9002 l 0.07654,-0.13178 c 0.09795,-0.17599 0.2377,-0.34724 0.29751,-0.51211 l 8.695598,-14.96808 0.297509,-0.512113 0.07655,-0.131775 z" />
    <path
       id="path1880"
       style="fill:#808080;fill-rule:evenodd;stroke-width:0.264583"
       d="m 69.41504,93.351368 c -0.510127,0.885252 -1.692187,2.912828 -2.538279,4.369242 0.176131,-0.293399 0.400982,-0.596098 0.668693,-0.900203 1.677816,-1.902273 4.631654,-3.444485 6.59782,-3.444751 0.09128,2.08e-4 0.179505,0.0038 0.264482,0.01085 l 0.02041,-0.03514 z m 0,0 c -0.08497,-0.007 -0.193618,0.0245 -0.284895,0.02429 -1.966166,2.64e-4 -4.920007,1.542477 -6.597823,3.444751 -0.267708,0.304105 -0.492562,0.606804 -0.668693,0.900203 l -0.07655,0.131775 c -0.09795,0.175992 -0.237701,0.347247 -0.297509,0.512113 l -8.695598,14.96808 -0.259383,0.44648 -0.114679,0.19741 c -0.176135,0.2934 -0.400984,0.5961 -0.668694,0.9002 -1.677816,1.90227 -4.631656,3.44448 -6.597823,3.44475 -0.09127,-2.1e-4 -0.179505,-0.004 -0.264481,-0.0109 l -0.02041,0.0351 h 5.013132 c 0.08498,0.007 0.193619,-0.0245 0.284895,-0.0243 1.966166,-2.6e-4 4.920004,-1.54248 6.59782,-3.44475 0.267711,-0.30411 0.492563,-0.60681 0.668697,-0.9002 l 0.07654,-0.13178 c 0.09795,-0.17599 0.2377,-0.34724 0.29751,-0.51211 l 8.695598,-14.96808 0.297509,-0.512113 0.07655,-0.131775 z" />
    <path
       id="path1884"
       style="fill:#808080;fill-rule:evenodd;stroke-width:0.264583"
       d="m 100.89212,93.217076 c -0.51012,0.885252 -1.692184,2.912828 -2.538276,4.369242 0.176131,-0.293399 0.400982,-0.596098 0.668693,-0.900203 1.677813,-1.902273 4.631653,-3.444485 6.597823,-3.444751 0.0913,2.08e-4 0.1795,0.0038 0.26448,0.01085 l 0.0204,-0.03514 z m 0,0 c -0.085,-0.007 -0.19361,0.0245 -0.28489,0.02429 -1.966168,2.64e-4 -4.920009,1.542477 -6.597825,3.444751 -0.267708,0.304105 -0.492562,0.606804 -0.668693,0.900203 l -0.07655,0.131775 c -0.09795,0.175992 -0.237701,0.347247 -0.297509,0.512113 l -8.695598,14.968082 -0.259383,0.44648 -0.114679,0.1974 c -0.176135,0.29341 -0.400984,0.5961 -0.668694,0.90021 -1.677816,1.90227 -4.631656,3.44448 -6.597823,3.44475 -0.09127,-2.1e-4 -0.179505,-0.004 -0.264481,-0.0108 l -0.02041,0.0351 h 5.013132 c 0.08498,0.007 0.193619,-0.0245 0.284895,-0.0243 1.966166,-2.7e-4 4.920004,-1.54248 6.59782,-3.44475 0.267711,-0.30411 0.492563,-0.60681 0.668697,-0.90021 l 0.07654,-0.13177 c 0.09795,-0.17599 0.2377,-0.34725 0.29751,-0.51211 l 8.695598,-14.968082 0.297509,-0.512113 0.07655,-0.131775 z" />
    <path
       id="path1886"
       style="fill:#b3b3b3;fill-rule:evenodd;stroke-width:0.264583"
       d="m 127.25638,118.17628 c -0.51013,-0.88526 -1.69219,-2.91283 -2.53828,-4.36925 0.17613,0.2934 0.40098,0.5961 0.66869,0.90021 1.67782,1.90227 4.63165,3.44448 6.59782,3.44475 0.0913,-2.1e-4 0.1795,-0.004 0.26448,-0.0109 l 0.0204,0.0351 z m 0,0 c -0.085,0.007 -0.19362,-0.0245 -0.2849,-0.0243 -1.96617,-2.7e-4 -4.92001,-1.54248 -6.59782,-3.44475 -0.26771,-0.30411 -0.49256,-0.60681 -0.6687,-0.90021 l -0.0765,-0.13177 c -0.0979,-0.17599 -0.2377,-0.34725 -0.2975,-0.51212 l -8.6956,-14.968073 -0.25939,-0.446485 -0.11467,-0.197403 c -0.17614,-0.293402 -0.40099,-0.596101 -0.6687,-0.900205 -1.67781,-1.902272 -4.63165,-3.444483 -6.59782,-3.44475 -0.0913,2.09e-4 -0.17951,0.0038 -0.26448,0.01085 l -0.0204,-0.03514 h 5.01313 c 0.085,-0.007 0.19362,0.0245 0.2849,0.02429 1.96616,2.64e-4 4.92,1.542478 6.59781,3.44475 0.26772,0.304107 0.49257,0.606806 0.6687,0.900205 l 0.0765,0.131773 c 0.0979,0.175993 0.2377,0.347247 0.29751,0.512115 l 8.6956,14.968073 0.29751,0.51212 0.0766,0.13177 z" />
    <path
       id="path1888"
       style="fill:#808080;fill-rule:evenodd;stroke-width:0.264583"
       d="m 100.89212,93.217076 c -0.51012,0.885252 -1.692184,2.912828 -2.538276,4.369242 0.176131,-0.293399 0.400982,-0.596098 0.668693,-0.900203 1.677813,-1.902273 4.631653,-3.444485 6.597823,-3.444751 0.0913,2.08e-4 0.1795,0.0038 0.26448,0.01085 l 0.0204,-0.03514 z m 0,0 c -0.085,-0.007 -0.19361,0.0245 -0.28489,0.02429 -1.966168,2.64e-4 -4.920009,1.542477 -6.597825,3.444751 -0.267708,0.304105 -0.492562,0.606804 -0.668693,0.900203 l -0.07655,0.131775 c -0.09795,0.175992 -0.237701,0.347247 -0.297509,0.512113 l -8.695598,14.968082 -0.259383,0.44648 -0.114679,0.1974 c -0.176135,0.29341 -0.400984,0.5961 -0.668694,0.90021 -1.677816,1.90227 -4.631656,3.44448 -6.597823,3.44475 -0.09127,-2.1e-4 -0.179505,-0.004 -0.264481,-0.0108 l -0.02041,0.0351 h 5.013132 c 0.08498,0.007 0.193619,-0.0245 0.284895,-0.0243 1.966166,-2.7e-4 4.920004,-1.54248 6.59782,-3.44475 0.267711,-0.30411 0.492563,-0.60681 0.668697,-0.90021 l 0.07654,-0.13177 c 0.09795,-0.17599 0.2377,-0.34725 0.29751,-0.51211 l 8.695598,-14.968082 0.297509,-0.512113 0.07655,-0.131775 z" />
    <path
       id="path3332"
       style="fill:#cdde87;stroke-width:0.270143"
       d="m 76.345585,94.905995 h 3.405033 v 23.305435 h -3.405033 z" />
    <path
       id="path1890"
       style="fill:#808080;fill-rule:evenodd;stroke-width:0.264583"
       d="m 100.89212,93.217076 c -0.51012,0.885252 -1.692184,2.912828 -2.538276,4.369242 0.176131,-0.293399 0.400982,-0.596098 0.668693,-0.900203 1.677813,-1.902273 4.631653,-3.444485 6.597823,-3.444751 0.0913,2.08e-4 0.1795,0.0038 0.26448,0.01085 l 0.0204,-0.03514 z m 0,0 c -0.085,-0.007 -0.19361,0.0245 -0.28489,0.02429 -1.966168,2.64e-4 -4.920009,1.542477 -6.597825,3.444751 -0.267708,0.304105 -0.492562,0.606804 -0.668693,0.900203 l -0.07655,0.131775 c -0.09795,0.175992 -0.237701,0.347247 -0.297509,0.512113 l -8.695598,14.968082 -0.259383,0.44648 -0.114679,0.1974 c -0.176135,0.29341 -0.400984,0.5961 -0.668694,0.90021 -1.677816,1.90227 -4.631656,3.44448 -6.597823,3.44475 -0.09127,-2.1e-4 -0.179505,-0.004 -0.264481,-0.0108 l -0.02041,0.0351 h 5.013132 c 0.08498,0.007 0.193619,-0.0245 0.284895,-0.0243 1.966166,-2.7e-4 4.920004,-1.54248 6.59782,-3.44475 0.267711,-0.30411 0.492563,-0.60681 0.668697,-0.90021 l 0.07654,-0.13177 c 0.09795,-0.17599 0.2377,-0.34725 0.29751,-0.51211 l 8.695598,-14.968082 0.297509,-0.512113 0.07655,-0.131775 z" />
    <path
       id="path3334"
       style="fill:#ff8080;stroke-width:0.244449"
       d="m 76.502239,94.898261 c -0.01,0.01944 -0.0087,0.02226 -0.01344,0.0333 0.0019,3.4e-5 0.0035,-3.2e-5 0.0052,0 0.0034,-0.0062 0.0062,-0.01261 0.0098,-0.01869 -5.29e-4,-0.0049 -7.94e-4,-0.0099 -0.0016,-0.01459 z m 3.210655,1.40775 c -0.0011,3e-4 -0.0021,8.98e-4 -0.0031,0.0012 0.0042,-5.1e-5 0.0056,5.1e-5 0.0098,0 -0.0021,-5.98e-4 -0.0045,-5.98e-4 -0.0067,-0.0012 z m -3.367236,1.692809 v 0.04612 c 0.07649,-0.0046 0.152977,-0.0068 0.229444,-0.0113 0.0032,-0.0056 0.0059,-0.01187 0.0093,-0.01752 -0.07975,-0.0046 -0.159197,-0.01142 -0.238744,-0.01752 z m 2.46135,3.98375 c -0.185968,-10e-4 -0.372277,6e-4 -0.559141,0.004 0.04021,0.008 0.104055,0.022 0.137977,0.0292 l 0.05839,-0.002 c 0.612619,-0.0164 0.73016,-0.0194 0.83199,-0.0221 -0.156734,-0.004 -0.313007,-0.009 -0.46922,-0.01 z m 0.94361,3.36051 -1.863968,2.10752 -1.540992,-1.74246 v 12.50329 h 3.40496 z" />
    <path
       id="path1894"
       style="fill:#808080;fill-rule:evenodd;stroke-width:0.264583"
       d="m 120.32582,93.316228 c -0.51012,0.885252 -1.69218,2.912828 -2.53827,4.369242 0.17613,-0.293399 0.40098,-0.596098 0.66869,-0.900203 1.67782,-1.902273 4.63165,-3.444485 6.59782,-3.444751 0.0913,2.08e-4 0.1795,0.0038 0.26448,0.01085 l 0.0204,-0.03514 z m 0,0 c -0.085,-0.007 -0.19361,0.0245 -0.28489,0.02429 -1.96617,2.64e-4 -4.92001,1.542477 -6.59782,3.444751 -0.26771,0.304105 -0.49257,0.606804 -0.6687,0.900203 l -0.0766,0.131775 c -0.0979,0.175992 -0.2377,0.347247 -0.2975,0.512113 l -8.6956,14.96808 -0.25939,0.44648 -0.11467,0.19741 c -0.17614,0.2934 -0.40099,0.5961 -0.6687,0.9002 -1.67782,1.90227 -4.631656,3.44448 -6.597823,3.44475 -0.09127,-2.1e-4 -0.179505,-0.004 -0.264481,-0.0109 l -0.02041,0.0351 h 5.013134 c 0.085,0.007 0.19362,-0.0245 0.28489,-0.0243 1.96617,-2.6e-4 4.92001,-1.54248 6.59782,-3.44475 0.26771,-0.30411 0.49257,-0.60681 0.6687,-0.9002 l 0.0765,-0.13178 c 0.098,-0.17599 0.2377,-0.34724 0.29751,-0.51211 l 8.6956,-14.96808 0.29751,-0.512113 0.0765,-0.131775 z" />
    <path
       id="path1896"
       style="fill:#b3b3b3;fill-rule:evenodd;stroke-width:0.264583"
       d="m 146.69008,118.27543 c -0.51013,-0.88525 -1.69219,-2.91283 -2.53828,-4.36924 0.17613,0.2934 0.40098,0.59609 0.66869,0.9002 1.67782,1.90227 4.63165,3.44448 6.59782,3.44475 0.0913,-2.1e-4 0.17951,-0.004 0.26448,-0.0109 l 0.0204,0.0351 z m 0,0 c -0.085,0.007 -0.19362,-0.0245 -0.2849,-0.0243 -1.96616,-2.7e-4 -4.92001,-1.54248 -6.59782,-3.44475 -0.26771,-0.30411 -0.49256,-0.60681 -0.66869,-0.90021 l -0.0765,-0.13177 c -0.0979,-0.17599 -0.23771,-0.34725 -0.29751,-0.51211 l -8.6956,-14.968081 -0.25938,-0.446485 -0.11468,-0.197403 c -0.17614,-0.293402 -0.40099,-0.596101 -0.6687,-0.900205 -1.67781,-1.902272 -4.63165,-3.444483 -6.59782,-3.44475 -0.0913,2.09e-4 -0.17951,0.0038 -0.26448,0.01085 l -0.0204,-0.03514 h 5.01313 c 0.085,-0.007 0.19362,0.0245 0.2849,0.02429 1.96616,2.64e-4 4.92,1.542478 6.59782,3.44475 0.26771,0.304107 0.49256,0.606806 0.66869,0.900205 l 0.0765,0.131773 c 0.0979,0.175993 0.2377,0.347247 0.29751,0.512115 l 8.6956,14.968081 0.29751,0.51211 0.0765,0.13177 z" />
    <path
       id="path1898"
       style="fill:#808080;fill-rule:evenodd;stroke-width:0.264583"
       d="m 120.32582,93.316228 c -0.51012,0.885252 -1.69218,2.912828 -2.53827,4.369242 0.17613,-0.293399 0.40098,-0.596098 0.66869,-0.900203 1.67782,-1.902273 4.63165,-3.444485 6.59782,-3.444751 0.0913,2.08e-4 0.1795,0.0038 0.26448,0.01085 l 0.0204,-0.03514 z m 0,0 c -0.085,-0.007 -0.19361,0.0245 -0.28489,0.02429 -1.96617,2.64e-4 -4.92001,1.542477 -6.59782,3.444751 -0.26771,0.304105 -0.49257,0.606804 -0.6687,0.900203 l -0.0766,0.131775 c -0.0979,0.175992 -0.2377,0.347247 -0.2975,0.512113 l -8.6956,14.96808 -0.25939,0.44648 -0.11467,0.19741 c -0.17614,0.2934 -0.40099,0.5961 -0.6687,0.9002 -1.67782,1.90227 -4.631656,3.44448 -6.597823,3.44475 -0.09127,-2.1e-4 -0.179505,-0.004 -0.264481,-0.0109 l -0.02041,0.0351 h 5.013134 c 0.085,0.007 0.19362,-0.0245 0.28489,-0.0243 1.96617,-2.6e-4 4.92001,-1.54248 6.59782,-3.44475 0.26771,-0.30411 0.49257,-0.60681 0.6687,-0.9002 l 0.0765,-0.13178 c 0.098,-0.17599 0.2377,-0.34724 0.29751,-0.51211 l 8.6956,-14.96808 0.29751,-0.512113 0.0765,-0.131775 z" />
    <path
       id="path1900"
       style="fill:#808080;fill-rule:evenodd;stroke-width:0.264583"
       d="m 120.32582,93.316228 c -0.51012,0.885252 -1.69218,2.912828 -2.53827,4.369242 0.17613,-0.293399 0.40098,-0.596098 0.66869,-0.900203 1.67782,-1.902273 4.63165,-3.444485 6.59782,-3.444751 0.0913,2.08e-4 0.1795,0.0038 0.26448,0.01085 l 0.0204,-0.03514 z m 0,0 c -0.085,-0.007 -0.19361,0.0245 -0.28489,0.02429 -1.96617,2.64e-4 -4.92001,1.542477 -6.59782,3.444751 -0.26771,0.304105 -0.49257,0.606804 -0.6687,0.900203 l -0.0766,0.131775 c -0.0979,0.175992 -0.2377,0.347247 -0.2975,0.512113 l -8.6956,14.96808 -0.25939,0.44648 -0.11467,0.19741 c -0.17614,0.2934 -0.40099,0.5961 -0.6687,0.9002 -1.67782,1.90227 -4.631656,3.44448 -6.597823,3.44475 -0.09127,-2.1e-4 -0.179505,-0.004 -0.264481,-0.0109 l -0.02041,0.0351 h 5.013134 c 0.085,0.007 0.19362,-0.0245 0.28489,-0.0243 1.96617,-2.6e-4 4.92001,-1.54248 6.59782,-3.44475 0.26771,-0.30411 0.49257,-0.60681 0.6687,-0.9002 l 0.0765,-0.13178 c 0.098,-0.17599 0.2377,-0.34724 0.29751,-0.51211 l 8.6956,-14.96808 0.29751,-0.512113 0.0765,-0.131775 z" />
    <path
       id="path3284"
       style="fill:#cdde87;stroke-width:0.226862"
       d="m 81.887884,116.98117 h 3.405033 v -16.43588 h -3.405033 z" />
    <path
       id="path3286"
       style="fill:#ff8080;stroke-width:0.197142"
       d="m 82.044538,115.70828 c -0.01,-0.0126 -0.0087,-0.0144 -0.01344,-0.0217 0.0019,-2e-5 0.0035,2e-5 0.0052,0 0.0034,0.004 0.0062,0.008 0.0098,0.0121 -5.29e-4,0.003 -7.94e-4,0.006 -0.0016,0.01 z m 3.210655,-0.91561 c -0.0011,-1.9e-4 -0.0021,-5.8e-4 -0.0031,-7.4e-4 0.0042,4e-5 0.0056,-2e-5 0.0098,0 -0.0021,3.9e-4 -0.0045,3.9e-4 -0.0067,7.4e-4 z m -3.367236,-1.101 v -0.03 c 0.07649,0.002 0.152977,0.005 0.229444,0.007 0.0032,0.004 0.0059,0.008 0.0093,0.0114 -0.07975,0.003 -0.159197,0.007 -0.238744,0.0114 z m 2.46135,-2.59106 c -0.185968,7.4e-4 -0.372277,-3.8e-4 -0.559141,-0.003 0.04021,-0.005 0.104055,-0.0144 0.137977,-0.019 l 0.05839,0.002 c 0.612619,0.0107 0.73016,0.0127 0.83199,0.0144 -0.156734,0.003 -0.313007,0.006 -0.46922,0.006 z m 0.94361,-2.18568 -1.863968,-1.37075 -1.540992,1.1333 v -8.13219 h 3.40496 z" />
    <path
       id="path3288"
       style="fill:#ffb380;stroke-width:0.264583"
       d="m 46.456189,118.31052 h 3.405033 V 95.954566 h -3.405033 z" />
    <path
       id="path3290"
       style="fill:#87cdde;stroke-width:0.229922"
       d="m 46.61277,116.57914 c -0.01,-0.0172 -0.0087,-0.0197 -0.01344,-0.0295 0.0019,-3e-5 0.0035,3e-5 0.0052,0 0.0034,0.005 0.0062,0.0112 0.0098,0.0165 -5.29e-4,0.004 -7.94e-4,0.009 -0.0016,0.0129 z m 3.210655,-1.2454 c -0.0011,-2.6e-4 -0.0021,-7.9e-4 -0.0031,-0.001 0.0042,5e-5 0.0056,-4e-5 0.0098,0 -0.0021,5.3e-4 -0.0045,5.3e-4 -0.0067,0.001 z m -3.367236,-1.49758 v -0.0408 c 0.07649,0.004 0.152977,0.006 0.229444,0.01 0.0032,0.005 0.0059,0.0105 0.0093,0.0155 -0.07975,0.004 -0.159197,0.0101 -0.238744,0.0155 z m 2.46135,-3.52433 c -0.185968,0.001 -0.372277,-5.3e-4 -0.559141,-0.004 0.04021,-0.007 0.104055,-0.0195 0.137977,-0.0258 l 0.05839,0.002 c 0.612619,0.0145 0.73016,0.0172 0.83199,0.0196 -0.156734,0.004 -0.313007,0.008 -0.46922,0.009 z m 0.94361,-2.97295 -1.863968,-1.86448 -1.540992,1.54151 V 95.954566 h 3.40496 z" />
    <path
       id="path3292"
       style="fill:#ffb380;stroke-width:0.203326"
       d="M 41.123547,116.79568 H 44.52858 V 103.59314 H 41.123547 Z" />
    <path
       id="path3294"
       style="fill:#87cdde;stroke-width:0.17669"
       d="m 41.280128,115.7732 c -0.01,-0.0102 -0.0087,-0.0116 -0.01344,-0.0174 0.0019,-2e-5 0.0035,2e-5 0.0052,0 0.0034,0.003 0.0062,0.007 0.0098,0.01 -5.29e-4,0.002 -7.94e-4,0.005 -0.0016,0.008 z m 3.210655,-0.73549 c -0.0011,-1.5e-4 -0.0021,-4.6e-4 -0.0031,-5.9e-4 0.0042,3e-5 0.0056,-2e-5 0.0098,0 -0.0021,3.1e-4 -0.0045,3.1e-4 -0.0067,5.9e-4 z m -3.367236,-0.88441 v -0.0241 c 0.07649,0.002 0.152977,0.004 0.229444,0.006 0.0032,0.003 0.0059,0.006 0.0093,0.009 -0.07975,0.002 -0.159197,0.006 -0.238744,0.009 z m 2.46135,-2.08133 c -0.185968,5.9e-4 -0.372277,-3.1e-4 -0.559141,-0.002 0.04021,-0.004 0.104055,-0.0115 0.137977,-0.0152 l 0.05839,10e-4 c 0.612619,0.009 0.73016,0.0101 0.83199,0.0116 -0.156734,0.002 -0.313007,0.005 -0.46922,0.005 z m 0.94361,-1.7557 -1.863968,-1.10109 -1.540992,0.91035 v -6.53239 h 3.40496 z" />
    <path
       id="path3394"
       style="fill:#cdde87;stroke-width:0.270142"
       d="m 64.835835,74.409997 v -3.092833 c 0.07955,-0.0061 0.158996,-0.01297 0.238747,-0.01757 -0.0034,-0.0056 -0.0061,-0.01197 -0.0093,-0.01757 -0.07647,-0.0045 -0.152953,-0.0063 -0.229444,-0.01085 V 63.60756 l 1.540992,-1.74253 1.863968,2.107883 V 74.409997 H 64.99345 c 2.23e-4,-0.0024 2.65e-4,-0.0049 5.19e-4,-0.0072 -0.0036,-0.0061 -0.0059,-0.0124 -0.0093,-0.0186 -0.0017,3.1e-5 -0.0038,-3.5e-5 -0.0057,0 0.0036,0.0085 0.0059,0.01577 0.01033,0.02584 z m 3.367236,-1.399913 c 0.0022,-6.03e-4 0.0046,-9.52e-4 0.0067,-0.0016 -0.0042,-5.3e-5 -0.0056,5e-5 -0.0098,0 9.98e-4,3.01e-4 0.002,0.0012 0.0031,0.0016 z m -0.905886,-5.67614 c 0.156213,-0.001 0.312486,-0.0058 0.46922,-0.0098 -0.10183,-0.0027 -0.219371,-0.0058 -0.83199,-0.02222 l -0.05839,-0.0021 c -0.03392,0.0072 -0.09777,0.02146 -0.137977,0.02945 0.186864,0.0034 0.373171,0.0051 0.559141,0.0041 z" />
    <path
       id="path3398"
       style="fill:#cdde87;stroke-width:0.270143"
       d="m 51.640839,93.210198 h 3.405033 v 23.305432 h -3.405033 z" />
    <path
       id="path3400"
       style="fill:#ff8080;stroke-width:0.244449"
       d="m 51.797493,93.202464 c -0.01,0.01944 -0.0087,0.02226 -0.01344,0.0333 0.0019,3.4e-5 0.0035,-3.2e-5 0.0052,0 0.0034,-0.0062 0.0062,-0.01261 0.0098,-0.01869 -5.29e-4,-0.0049 -7.94e-4,-0.0099 -0.0016,-0.01459 z m 3.210655,1.40775 c -0.0011,3e-4 -0.0021,8.98e-4 -0.0031,0.0012 0.0042,-5.1e-5 0.0056,5.1e-5 0.0098,0 -0.0021,-5.98e-4 -0.0045,-5.98e-4 -0.0067,-0.0012 z m -3.367236,1.692809 v 0.04612 c 0.07649,-0.0046 0.152977,-0.0068 0.229444,-0.0113 0.0032,-0.0056 0.0059,-0.01187 0.0093,-0.01752 -0.07975,-0.0046 -0.159197,-0.01142 -0.238744,-0.01752 z m 2.46135,3.983747 c -0.185968,-0.001 -0.372277,6e-4 -0.559141,0.004 0.04021,0.008 0.104055,0.022 0.137977,0.0292 l 0.05839,-0.002 c 0.612619,-0.0164 0.73016,-0.0194 0.83199,-0.0221 -0.156734,-0.004 -0.313007,-0.009 -0.46922,-0.01 z m 0.94361,3.36051 -1.863968,2.10752 -1.540992,-1.74246 v 12.50329 h 3.40496 z" />
    <path
       id="path3402"
       style="fill:#cdde87;stroke-width:0.215515"
       d="m 66.641055,94.733365 h 3.405033 V 109.5662 h -3.405033 z" />
    <path
       id="path3404"
       style="fill:#ff8080;stroke-width:0.195017"
       d="m 66.641055,94.733365 c -0.01,0.01237 -0.0087,0.01417 -0.01344,0.02119 0.0019,2.2e-5 0.0035,-2e-5 0.0052,0 0.0034,-0.0039 0.0062,-0.008 0.0098,-0.01189 -5.29e-4,-0.0031 -7.94e-4,-0.0063 -0.0016,-0.0093 z m 3.210655,0.895969 c -0.0011,1.9e-4 -0.0021,5.71e-4 -0.0031,7.63e-4 0.0042,-3.2e-5 0.0056,3.3e-5 0.0098,0 -0.0021,-3.8e-4 -0.0045,-3.8e-4 -0.0067,-7.63e-4 z m -3.367236,1.077395 v 0.02935 c 0.07649,-0.0029 0.152977,-0.0043 0.229444,-0.0072 0.0032,-0.0036 0.0059,-0.0076 0.0093,-0.01115 -0.07975,-0.0029 -0.159197,-0.0073 -0.238744,-0.01115 z m 2.46135,2.535474 c -0.185968,-6.36e-4 -0.372277,3.82e-4 -0.559141,0.0025 0.04021,0.0051 0.104055,0.014 0.137977,0.01858 l 0.05839,-0.0013 c 0.612619,-0.01044 0.73016,-0.01235 0.83199,-0.01407 -0.156734,-0.0025 -0.313007,-0.0057 -0.46922,-0.0064 z m 0.94361,2.138807 -1.863968,1.34134 -1.540992,-1.10899 v 7.95777 h 3.40496 z" />
    <path
       id="path3406"
       style="fill:#87cdde;stroke-width:0.17669"
       d="m 41.280128,115.7732 c -0.01,-0.0102 -0.0087,-0.0116 -0.01344,-0.0174 0.0019,-2e-5 0.0035,2e-5 0.0052,0 0.0034,0.003 0.0062,0.007 0.0098,0.01 -5.29e-4,0.002 -7.94e-4,0.005 -0.0016,0.008 z m 3.210655,-0.73549 c -0.0011,-1.5e-4 -0.0021,-4.6e-4 -0.0031,-5.9e-4 0.0042,3e-5 0.0056,-2e-5 0.0098,0 -0.0021,3.1e-4 -0.0045,3.1e-4 -0.0067,5.9e-4 z m -3.367236,-0.88441 v -0.0241 c 0.07649,0.002 0.152977,0.004 0.229444,0.006 0.0032,0.003 0.0059,0.006 0.0093,0.009 -0.07975,0.002 -0.159197,0.006 -0.238744,0.009 z m 2.46135,-2.08133 c -0.185968,5.9e-4 -0.372277,-3.1e-4 -0.559141,-0.002 0.04021,-0.004 0.104055,-0.0115 0.137977,-0.0152 l 0.05839,10e-4 c 0.612619,0.009 0.73016,0.0101 0.83199,0.0116 -0.156734,0.002 -0.313007,0.005 -0.46922,0.005 z m 0.94361,-1.7557 -1.863968,-1.10109 -1.540992,0.91035 v -6.53239 h 3.40496 z" />
    <path
       id="path3408"
       style="fill:#ffb380;stroke-width:0.234291"
       d="m 92.727909,99.624633 h 3.405033 v 17.529987 h -3.405033 z" />
    <path
       id="path3410"
       style="fill:#87cdde;stroke-width:0.203599"
       d="m 92.88449,100.98226 c -0.01,0.0135 -0.0087,0.0154 -0.01344,0.0231 0.0019,2e-5 0.0035,-2e-5 0.0052,0 0.0034,-0.004 0.0062,-0.009 0.0098,-0.013 -5.29e-4,-0.003 -7.94e-4,-0.007 -0.0016,-0.0101 z m 3.210655,0.97656 c -0.0011,2e-4 -0.0021,6.2e-4 -0.0031,8.6e-4 0.0042,-4e-5 0.0056,3e-5 0.0098,0 -0.0021,-4.2e-4 -0.0045,-4.2e-4 -0.0067,-8.6e-4 z m -3.367236,1.1743 v 0.032 c 0.07649,-0.003 0.152977,-0.005 0.229444,-0.008 0.0032,-0.004 0.0059,-0.008 0.0093,-0.0121 -0.07975,-0.003 -0.159197,-0.008 -0.238744,-0.0122 z m 2.46135,2.76354 c -0.185968,-7.9e-4 -0.372277,4.1e-4 -0.559141,0.003 0.04021,0.005 0.104055,0.0153 0.137977,0.0202 l 0.05839,-0.002 c 0.612619,-0.0114 0.73016,-0.0135 0.83199,-0.0154 -0.156734,-0.003 -0.313007,-0.006 -0.46922,-0.007 z m 0.94361,2.33118 -1.863968,1.46199 -1.540992,-1.20874 v 8.67353 h 3.40496 z" />
    <path
       id="path3412"
       style="fill:#ffb380;stroke-width:0.272666"
       d="m 97.896144,118.11605 h 3.405036 V 94.373212 h -3.405036 z" />
    <path
       id="path3414"
       style="fill:#87cdde;stroke-width:0.236947"
       d="m 98.052725,116.27725 c -0.01,-0.0183 -0.0087,-0.0209 -0.01344,-0.0313 0.0019,-3e-5 0.0035,3e-5 0.0052,0 0.0034,0.005 0.0062,0.0119 0.0098,0.0176 -5.29e-4,0.004 -7.94e-4,0.009 -0.0016,0.0137 z m 3.210655,-1.32265 c -0.001,-2.8e-4 -0.002,-8.4e-4 -0.003,-0.001 0.004,6e-5 0.006,-4e-5 0.01,0 -0.002,5.6e-4 -0.004,5.6e-4 -0.007,0.001 z m -3.367236,-1.59048 v -0.0434 c 0.07649,0.004 0.152977,0.006 0.229444,0.0107 0.0032,0.005 0.0059,0.0112 0.0093,0.0164 -0.07975,0.004 -0.159197,0.0108 -0.238744,0.0165 z m 2.461346,-3.74298 c -0.18596,0.001 -0.372273,-5.6e-4 -0.559137,-0.004 0.04021,-0.007 0.104055,-0.0207 0.137977,-0.0274 l 0.05839,0.002 c 0.61262,0.0154 0.73016,0.0183 0.83199,0.0208 -0.15673,0.004 -0.31301,0.008 -0.46922,0.009 z m 0.94362,-3.15738 -1.863974,-1.98014 -1.540992,1.63714 V 94.373212 h 3.404966 z" />
    <path
       id="path3416"
       style="fill:#ffb380;stroke-width:0.215525"
       d="m 56.582741,94.291828 h 3.405033 v 14.834192 h -3.405033 z" />
    <path
       id="path3418"
       style="fill:#87cdde;stroke-width:0.187291"
       d="m 56.739322,95.440675 c -0.01,0.01142 -0.0087,0.01307 -0.01344,0.01955 0.0019,2.1e-5 0.0035,-1.8e-5 0.0052,0 0.0034,-0.0036 0.0062,-0.0074 0.0098,-0.01097 -5.29e-4,-0.0028 -7.94e-4,-0.0057 -0.0016,-0.0086 z m 3.210655,0.82638 c -0.0011,1.76e-4 -0.0021,5.27e-4 -0.0031,7.31e-4 0.0042,-3.1e-5 0.0056,3e-5 0.0098,0 -0.0021,-3.52e-4 -0.0045,-3.52e-4 -0.0067,-7.31e-4 z m -3.367236,0.993715 v 0.02708 c 0.07649,-0.0023 0.152977,-0.0042 0.229444,-0.0065 0.0032,-0.0034 0.0059,-0.007 0.0093,-0.01028 -0.07975,-0.0027 -0.159197,-0.0067 -0.238744,-0.01028 z m 2.46135,2.338556 c -0.185968,-6.63e-4 -0.372277,3.45e-4 -0.559141,0.0027 0.04021,0.0044 0.104055,0.01291 0.137977,0.01715 l 0.05839,-8.84e-4 c 0.612619,-0.0096 0.73016,-0.01141 0.83199,-0.013 -0.156734,-0.0027 -0.313007,-0.0053 -0.46922,-0.0062 z m 0.94361,1.972684 -1.863968,1.23717 -1.540992,-1.02287 v 7.33971 h 3.40496 z" />
    <path
       id="path1882"
       style="fill:#808080;fill-rule:evenodd;stroke-width:0.264583"
       d="m 69.41504,93.351368 c -0.510127,0.885252 -1.692187,2.912828 -2.538279,4.369242 0.176131,-0.293399 0.400982,-0.596098 0.668693,-0.900203 1.677816,-1.902273 4.631654,-3.444485 6.59782,-3.444751 0.09128,2.08e-4 0.179505,0.0038 0.264482,0.01085 l 0.02041,-0.03514 z m 0,0 c -0.08497,-0.007 -0.193618,0.0245 -0.284895,0.02429 -1.966166,2.64e-4 -4.920007,1.542477 -6.597823,3.444751 -0.267708,0.304105 -0.492562,0.606804 -0.668693,0.900203 l -0.07655,0.131775 c -0.09795,0.175992 -0.237701,0.347247 -0.297509,0.512113 l -8.695598,14.96808 -0.259383,0.44648 -0.114679,0.19741 c -0.176135,0.2934 -0.400984,0.5961 -0.668694,0.9002 -1.677816,1.90227 -4.631656,3.44448 -6.597823,3.44475 -0.09127,-2.1e-4 -0.179505,-0.004 -0.264481,-0.0109 l -0.02041,0.0351 h 5.013132 c 0.08498,0.007 0.193619,-0.0245 0.284895,-0.0243 1.966166,-2.6e-4 4.920004,-1.54248 6.59782,-3.44475 0.267711,-0.30411 0.492563,-0.60681 0.668697,-0.9002 l 0.07654,-0.13178 c 0.09795,-0.17599 0.2377,-0.34724 0.29751,-0.51211 l 8.695598,-14.96808 0.297509,-0.512113 0.07655,-0.131775 z" />
    <path
       id="path1534"
       style="fill:#808080;fill-rule:evenodd;stroke-width:0.264583"
       d="m 51.819463,93.252214 c -0.510127,0.885252 -1.692187,2.912828 -2.538279,4.369242 0.176131,-0.293399 0.400982,-0.596098 0.668693,-0.900203 1.677816,-1.902273 4.631654,-3.444485 6.59782,-3.444751 0.09128,2.08e-4 0.179505,0.0038 0.264482,0.01085 l 0.02041,-0.03514 z m 0,0 c -0.08497,-0.007 -0.193618,0.0245 -0.284895,0.02429 -1.966166,2.64e-4 -4.920007,1.542477 -6.597823,3.444751 -0.267708,0.304105 -0.492562,0.606804 -0.668693,0.900203 l -0.07655,0.131775 c -0.09795,0.175992 -0.237701,0.347247 -0.297509,0.512113 l -8.695598,14.968074 -0.259383,0.44649 -0.114679,0.1974 c -0.176135,0.2934 -0.400984,0.5961 -0.668694,0.90021 -1.677816,1.90227 -4.631656,3.44448 -6.597823,3.44475 -0.09127,-2.1e-4 -0.179505,-0.004 -0.264481,-0.0108 l -0.02041,0.0351 h 5.013132 c 0.08498,0.007 0.193619,-0.0245 0.284895,-0.0243 1.966166,-2.7e-4 4.920004,-1.54248 6.59782,-3.44475 0.267711,-0.30411 0.492563,-0.60681 0.668697,-0.90021 l 0.07654,-0.13177 c 0.09795,-0.17599 0.2377,-0.34725 0.29751,-0.51212 l 8.695598,-14.968074 0.297509,-0.512113 0.07655,-0.131775 z" />
    <path
       id="path3420"
       style="fill:#ffb380;stroke-width:0.214909"
       d="m 108.2522,94.23917 h 3.40503 v 14.74944 h -3.40503 z" />
    <path
       id="path3422"
       style="fill:#87cdde;stroke-width:0.191229"
       d="m 108.40878,94.721595 c -0.01,0.0119 -0.009,0.01362 -0.0134,0.02038 0.002,2.1e-5 0.004,-2e-5 0.005,0 0.003,-0.0039 0.006,-0.0077 0.01,-0.01144 -5.3e-4,-0.003 -7.9e-4,-0.006 -0.002,-0.0089 z m 3.21066,0.861505 c -10e-4,1.82e-4 -0.002,5.47e-4 -0.003,7.59e-4 0.004,-3e-5 0.006,3.2e-5 0.01,0 -0.002,-3.66e-4 -0.005,-3.66e-4 -0.007,-7.59e-4 z m -3.36724,1.03595 v 0.02824 c 0.0765,-0.0025 0.15298,-0.0044 0.22944,-0.0067 0.003,-0.0036 0.006,-0.0073 0.009,-0.01072 -0.0798,-0.0028 -0.15919,-0.007 -0.23874,-0.01072 z m 2.46135,2.437949 c -0.18597,-6.93e-4 -0.37228,3.66e-4 -0.55914,0.0028 0.0402,0.0048 0.10405,0.01349 0.13798,0.01785 l 0.0584,-0.0014 c 0.61261,-0.01003 0.73016,-0.0119 0.83199,-0.01356 -0.15674,-0.0028 -0.31301,-0.0055 -0.46922,-0.0062 z m 0.94361,2.056531 -1.86397,1.28976 -1.54099,-1.06634 v 7.65166 h 3.40496 z" />
    <path
       id="path3424"
       style="fill:#ffb380;stroke-width:0.264583"
       d="m 122.69336,93.281076 h 3.40503 v 22.355954 h -3.40503 z" />
    <path
       id="path3426"
       style="fill:#87cdde;stroke-width:0.229922"
       d="m 122.84994,95.012453 c -0.01,0.0172 -0.009,0.01969 -0.0134,0.02946 0.002,3e-5 0.004,-2.9e-5 0.005,0 0.003,-0.0055 0.006,-0.01116 0.01,-0.01654 -5.3e-4,-0.0043 -8e-4,-0.0087 -0.002,-0.01291 z m 3.21066,1.245402 c -10e-4,2.65e-4 -0.002,7.94e-4 -0.003,0.0011 0.004,-4.5e-5 0.006,4.5e-5 0.01,0 -0.002,-5.29e-4 -0.005,-5.29e-4 -0.007,-0.0011 z m -3.36724,1.497584 v 0.04082 c 0.0765,-0.0035 0.15297,-0.0063 0.22944,-0.0098 0.003,-0.0051 0.006,-0.0105 0.009,-0.0155 -0.0797,-0.004 -0.1592,-0.01013 -0.23874,-0.0155 z m 2.46135,3.524331 c -0.18597,-0.001 -0.37228,5.3e-4 -0.55914,0.004 0.0402,0.007 0.10405,0.0195 0.13798,0.0258 l 0.0584,-0.002 c 0.61261,-0.0145 0.73016,-0.0172 0.83199,-0.0196 -0.15674,-0.004 -0.31301,-0.008 -0.46922,-0.009 z m 0.94361,2.97295 -1.86397,1.86448 -1.54099,-1.54151 v 11.06134 h 3.40496 z" />
    <path
       id="path3428"
       style="fill:#ffb380;stroke-width:0.264583"
       d="m 128.31489,118.14109 h 3.40503 V 95.785136 h -3.40503 z" />
    <path
       id="path3430"
       style="fill:#87cdde;stroke-width:0.229922"
       d="m 128.47147,116.40971 c -0.01,-0.0172 -0.009,-0.0197 -0.0134,-0.0295 0.002,-3e-5 0.004,3e-5 0.005,0 0.003,0.005 0.006,0.0112 0.01,0.0165 -5.3e-4,0.004 -8e-4,0.009 -0.002,0.0129 z m 3.21066,-1.2454 c -0.001,-2.6e-4 -0.002,-7.9e-4 -0.003,-0.001 0.004,5e-5 0.006,-4e-5 0.01,0 -0.002,5.3e-4 -0.005,5.3e-4 -0.007,0.001 z m -3.36724,-1.49758 v -0.0408 c 0.0765,0.003 0.15297,0.006 0.22944,0.01 0.003,0.005 0.006,0.0105 0.009,0.0155 -0.0797,0.004 -0.1592,0.0101 -0.23874,0.0155 z m 2.46135,-3.52433 c -0.18597,0.001 -0.37228,-5.3e-4 -0.55914,-0.004 0.0402,-0.007 0.10405,-0.0195 0.13798,-0.0258 l 0.0584,0.002 c 0.61261,0.0145 0.73016,0.0172 0.83199,0.0196 -0.15674,0.004 -0.31301,0.008 -0.46922,0.009 z m 0.94361,-2.97295 -1.86397,-1.86448 -1.54099,1.54151 V 95.785136 h 3.40496 z" />
    <path
       id="path3432"
       style="fill:#cdde87;stroke-width:0.203615"
       d="m 133.78499,102.59223 h 3.40504 v 13.24006 h -3.40504 z" />
    <path
       id="path3434"
       style="fill:#ff8080;stroke-width:0.184249"
       d="m 133.94165,102.58784 c -0.01,0.0111 -0.009,0.0126 -0.0134,0.0189 0.002,3e-5 0.004,-1e-5 0.005,0 0.003,-0.003 0.006,-0.008 0.01,-0.0107 -5.3e-4,-0.003 -8e-4,-0.006 -0.002,-0.009 z m 3.21065,0.79976 c -0.001,1.6e-4 -0.002,4.9e-4 -0.003,6.8e-4 0.004,-4e-5 0.006,2e-5 0.01,0 -0.002,-3.5e-4 -0.005,-3.5e-4 -0.007,-6.8e-4 z m -3.36723,0.96169 v 0.0262 c 0.0765,-0.003 0.15297,-0.003 0.22944,-0.007 0.003,-0.003 0.006,-0.007 0.009,-0.01 -0.0798,-0.003 -0.1592,-0.007 -0.23874,-0.01 z m 2.46135,2.26321 c -0.18597,-5.6e-4 -0.37228,3.4e-4 -0.55915,0.003 0.0402,0.004 0.10406,0.0125 0.13798,0.0166 l 0.0584,-0.002 c 0.61262,-0.009 0.73016,-0.011 0.83199,-0.0126 -0.15673,-0.003 -0.31301,-0.005 -0.46922,-0.006 z m 0.94361,1.90915 -1.86397,1.1973 -1.54099,-0.98991 v 7.10325 h 3.40496 z" />
    <path
       id="path3436"
       style="fill:#cdde87;stroke-width:0.217521"
       d="m 117.39518,94.425657 h 3.40503 v 15.110333 h -3.40503 z" />
    <path
       id="path3438"
       style="fill:#ff8080;stroke-width:0.196832"
       d="m 117.55183,94.420643 c -0.01,0.0126 -0.009,0.01443 -0.0134,0.02159 0.002,2.2e-5 0.003,-2e-5 0.005,0 0.003,-0.004 0.006,-0.0082 0.01,-0.01212 -5.2e-4,-0.0032 -7.9e-4,-0.0064 -0.002,-0.0095 z m 3.21066,0.91273 c -0.001,1.94e-4 -0.002,5.82e-4 -0.003,7.78e-4 0.004,-3.3e-5 0.006,3.3e-5 0.01,0 -0.002,-3.88e-4 -0.004,-3.88e-4 -0.007,-7.78e-4 z m -3.36724,1.097551 v 0.0299 c 0.0765,-0.003 0.15298,-0.0044 0.22945,-0.0073 0.003,-0.0036 0.006,-0.0077 0.009,-0.01136 -0.0798,-0.003 -0.1592,-0.0074 -0.23875,-0.01136 z m 2.46135,2.582907 c -0.18596,-6.48e-4 -0.37227,3.9e-4 -0.55914,0.0026 0.0402,0.0052 0.10406,0.01426 0.13798,0.01893 l 0.0584,-0.0013 c 0.61262,-0.01063 0.73016,-0.01258 0.83199,-0.01433 -0.15673,-0.0026 -0.31301,-0.0058 -0.46922,-0.0065 z m 0.94361,2.178819 -1.86396,1.36644 -1.541,-1.12974 v 8.10664 h 3.40496 z" />
    <path
       id="path3440"
       style="fill:#cdde87;stroke-width:0.264936"
       d="m 103.25947,93.216941 h 3.40503 v 22.415639 h -3.40503 z" />
    <path
       id="path3442"
       style="fill:#ff8080;stroke-width:0.239738"
       d="m 103.41612,93.20933 c -0.01,0.0187 -0.009,0.02141 -0.0134,0.03203 0.002,3.2e-5 0.004,-3.1e-5 0.005,0 0.003,-0.006 0.006,-0.01213 0.01,-0.01797 -5.2e-4,-0.0047 -7.9e-4,-0.0095 -0.002,-0.01403 z m 3.21066,1.354013 c -10e-4,2.89e-4 -0.002,8.64e-4 -0.003,0.0012 0.004,-4.9e-5 0.006,4.9e-5 0.01,0 -0.002,-5.76e-4 -0.004,-5.76e-4 -0.007,-0.0012 z m -3.36724,1.62819 v 0.04436 c 0.0765,-0.0044 0.15298,-0.0065 0.22945,-0.01087 0.003,-0.0054 0.006,-0.01141 0.009,-0.01685 -0.0798,-0.0044 -0.1592,-0.01099 -0.23875,-0.01685 z m 2.46135,3.831687 c -0.18597,-9.7e-4 -0.37227,5.8e-4 -0.55914,0.004 0.0402,0.008 0.10406,0.0211 0.13798,0.028 l 0.0584,-0.002 c 0.61262,-0.0157 0.73016,-0.0187 0.83199,-0.0213 -0.15673,-0.004 -0.31301,-0.009 -0.46922,-0.01 z m 0.94361,3.23223 -1.86396,2.02707 -1.541,-1.67595 v 12.02601 h 3.40496 z" />
    <path
       id="path1902"
       style="fill:#808080;fill-rule:evenodd;stroke-width:0.264583"
       d="m 120.32582,93.316228 c -0.51012,0.885252 -1.69218,2.912828 -2.53827,4.369242 0.17613,-0.293399 0.40098,-0.596098 0.66869,-0.900203 1.67782,-1.902273 4.63165,-3.444485 6.59782,-3.444751 0.0913,2.08e-4 0.1795,0.0038 0.26448,0.01085 l 0.0204,-0.03514 z m 0,0 c -0.085,-0.007 -0.19361,0.0245 -0.28489,0.02429 -1.96617,2.64e-4 -4.92001,1.542477 -6.59782,3.444751 -0.26771,0.304105 -0.49257,0.606804 -0.6687,0.900203 l -0.0766,0.131775 c -0.0979,0.175992 -0.2377,0.347247 -0.2975,0.512113 l -8.6956,14.96808 -0.25939,0.44648 -0.11467,0.19741 c -0.17614,0.2934 -0.40099,0.5961 -0.6687,0.9002 -1.67782,1.90227 -4.631656,3.44448 -6.597823,3.44475 -0.09127,-2.1e-4 -0.179505,-0.004 -0.264481,-0.0109 l -0.02041,0.0351 h 5.013134 c 0.085,0.007 0.19362,-0.0245 0.28489,-0.0243 1.96617,-2.6e-4 4.92001,-1.54248 6.59782,-3.44475 0.26771,-0.30411 0.49257,-0.60681 0.6687,-0.9002 l 0.0765,-0.13178 c 0.098,-0.17599 0.2377,-0.34724 0.29751,-0.51211 l 8.6956,-14.96808 0.29751,-0.512113 0.0765,-0.131775 z" />
    <path
       id="path1892"
       style="fill:#808080;fill-rule:evenodd;stroke-width:0.264583"
       d="m 100.89212,93.217076 c -0.51012,0.885252 -1.692184,2.912828 -2.538276,4.369242 0.176131,-0.293399 0.400982,-0.596098 0.668693,-0.900203 1.677813,-1.902273 4.631653,-3.444485 6.597823,-3.444751 0.0913,2.08e-4 0.1795,0.0038 0.26448,0.01085 l 0.0204,-0.03514 z m 0,0 c -0.085,-0.007 -0.19361,0.0245 -0.28489,0.02429 -1.966168,2.64e-4 -4.920009,1.542477 -6.597825,3.444751 -0.267708,0.304105 -0.492562,0.606804 -0.668693,0.900203 l -0.07655,0.131775 c -0.09795,0.175992 -0.237701,0.347247 -0.297509,0.512113 l -8.695598,14.968082 -0.259383,0.44648 -0.114679,0.1974 c -0.176135,0.29341 -0.400984,0.5961 -0.668694,0.90021 -1.677816,1.90227 -4.631656,3.44448 -6.597823,3.44475 -0.09127,-2.1e-4 -0.179505,-0.004 -0.264481,-0.0108 l -0.02041,0.0351 h 5.013132 c 0.08498,0.007 0.193619,-0.0245 0.284895,-0.0243 1.966166,-2.7e-4 4.920004,-1.54248 6.59782,-3.44475 0.267711,-0.30411 0.492563,-0.60681 0.668697,-0.90021 l 0.07654,-0.13177 c 0.09795,-0.17599 0.2377,-0.34725 0.29751,-0.51211 l 8.695598,-14.968082 0.297509,-0.512113 0.07655,-0.131775 z" />
    <path
       id="path3446"
       style="fill:#87cdde;stroke-width:0.241259"
       d="m 48.956698,52.319995 c -0.01,0.01894 -0.009,0.02168 -0.0134,0.03244 0.002,3.3e-5 0.004,-3.2e-5 0.005,0 0.003,-0.0061 0.006,-0.01229 0.01,-0.01821 -5.3e-4,-0.0047 -8e-4,-0.0096 -0.002,-0.01422 z m 3.21066,1.371242 c -10e-4,2.92e-4 -0.002,8.75e-4 -0.003,0.0012 0.004,-4.9e-5 0.006,5e-5 0.01,0 -0.002,-5.82e-4 -0.005,-5.82e-4 -0.007,-0.0012 z m -3.36724,1.648906 v 0.04495 c 0.0765,-0.0039 0.15297,-0.0069 0.22944,-0.01079 0.003,-0.0056 0.006,-0.01156 0.009,-0.01707 -0.0797,-0.0044 -0.1592,-0.01115 -0.23874,-0.01707 z m 2.46135,3.880443 c -0.18597,-0.0011 -0.37228,5.83e-4 -0.55914,0.0044 0.0402,0.0077 0.10405,0.02147 0.13798,0.02841 l 0.0584,-0.0022 c 0.61261,-0.01597 0.73016,-0.01894 0.83199,-0.02158 -0.15674,-0.0044 -0.31301,-0.0088 -0.46922,-0.0099 z m 0.94361,3.273348 -1.86397,2.052874 -1.54099,-1.69727 v 12.17902 h 3.40496 z" />
    <path
       id="path1906"
       style="fill:#808080;fill-rule:evenodd;stroke-width:0.264583"
       d="m 151.80295,93.181936 c -0.51013,0.885252 -1.69219,2.912828 -2.53828,4.369242 0.17613,-0.293399 0.40098,-0.596098 0.66869,-0.900203 1.67782,-1.902273 4.63165,-3.444485 6.59782,-3.444751 0.0913,2.08e-4 0.1795,0.0038 0.26448,0.01085 l 0.0204,-0.03514 z m 0,0 c -0.085,-0.007 -0.19362,0.0245 -0.2849,0.02429 -1.96617,2.64e-4 -4.92001,1.542477 -6.59782,3.444751 -0.26771,0.304105 -0.49257,0.606804 -0.6687,0.900203 l -0.0765,0.131775 c -0.0979,0.175992 -0.2377,0.347247 -0.2975,0.512113 l -8.6956,14.968082 -0.25939,0.44648 -0.11467,0.1974 c -0.17614,0.29341 -0.40099,0.5961 -0.6687,0.90021 -1.67782,1.90227 -4.63165,3.44448 -6.59782,3.44475 -0.0913,-2.1e-4 -0.17951,-0.004 -0.26448,-0.0109 l -0.0204,0.0351 h 5.01313 c 0.085,0.007 0.19362,-0.0245 0.28489,-0.0243 1.96617,-2.7e-4 4.92001,-1.54248 6.59782,-3.44475 0.26771,-0.30411 0.49257,-0.60681 0.6687,-0.90021 l 0.0765,-0.13177 c 0.0979,-0.17599 0.2377,-0.34725 0.29751,-0.51211 l 8.6956,-14.968082 0.29751,-0.512113 0.0765,-0.131775 z" />
    <path
       id="path3540"
       style="fill:#ffb380;stroke-width:0.264583"
       d="m 53.792592,74.939139 v -4.474662 c 0.07937,-0.0054 0.1587,-0.01151 0.238228,-0.0155 -0.003,-0.005 -0.0058,-0.0104 -0.0088,-0.0155 -0.07647,-0.0035 -0.152942,-0.0063 -0.229441,-0.0098 v -6.779429 l 1.540992,-1.541508 1.863968,1.864484 v 10.97194 z m 0.156062,-1.731676 h 5.16e-4 c -2.94e-4,-5.06e-4 -2.41e-4,-5.53e-4 -5.16e-4,-0.001 9.79e-4,-0.0039 0.0016,-0.0079 0.0021,-0.01189 -0.004,-0.0054 -0.0068,-0.01104 -0.0098,-0.01654 -10e-4,2.9e-5 -0.0032,-3e-5 -0.0052,0 0.0043,0.0095 0.0038,0.01255 0.01292,0.02842 -8.2e-5,3.31e-4 9.5e-5,7.07e-4 0,0.001 z m 3.211174,-1.245402 c 0.002,-5.72e-4 0.0047,-5.05e-4 0.0067,-0.001 -0.004,-4.5e-5 -0.0058,4.5e-5 -0.0098,0 10e-4,3.07e-4 0.0021,7.7e-4 0.0031,0.001 z m -0.905889,-5.020884 c 0.15621,-10e-4 0.312484,-0.0053 0.469223,-0.0093 -0.10183,-0.0024 -0.219382,-0.0046 -0.83199,-0.01912 l -0.05839,-0.0021 c -0.03393,0.0063 -0.09778,0.01884 -0.137977,0.02584 0.186859,0.0035 0.373168,0.0046 0.559138,0.0036 z" />
    <path
       id="path3542"
       style="fill:#ff8080;stroke-width:0.244449"
       d="m 59.194321,51.292861 c -0.01,0.01944 -0.0087,0.02226 -0.01344,0.0333 0.0019,3.4e-5 0.0035,-3.2e-5 0.0052,0 0.0034,-0.0062 0.0062,-0.01261 0.0098,-0.01869 -5.29e-4,-0.0049 -7.94e-4,-0.0099 -0.0016,-0.01459 z m 3.210655,1.40775 c -0.0011,3e-4 -0.0021,8.98e-4 -0.0031,0.0012 0.0042,-5.1e-5 0.0056,5.1e-5 0.0098,0 -0.0021,-5.98e-4 -0.0045,-5.98e-4 -0.0067,-0.0012 z M 59.03774,54.39342 v 0.04612 c 0.07649,-0.0046 0.152977,-0.0068 0.229444,-0.0113 0.0032,-0.0056 0.0059,-0.01187 0.0093,-0.01752 -0.07975,-0.0046 -0.159197,-0.01142 -0.238744,-0.01752 z m 2.46135,3.98375 c -0.185968,-10e-4 -0.372277,6e-4 -0.559141,0.004 0.04021,0.008 0.104055,0.022 0.137977,0.0292 l 0.05839,-0.002 c 0.612619,-0.0164 0.73016,-0.0194 0.83199,-0.0221 -0.156734,-0.004 -0.313007,-0.009 -0.46922,-0.01 z m 0.94361,3.36051 -1.863968,2.10752 -1.540992,-1.74246 v 12.50329 h 3.40496 z" />
    <text
       xml:space="preserve"
       transform="matrix(0,-0.26458333,0.26458333,0,4.3493021,88.988641)"
       id="text17263"
       style="font-style:normal;font-weight:normal;font-size:14.6667px;font-family:Arial;white-space:pre;shape-inside:url(#rect17265);fill:#000000;fill-opacity:1;stroke:none;-inkscape-font-specification:Arial;font-stretch:normal;font-variant:normal"><tspan
         x="116.28711"
         y="175.58414"
         id="tspan62549">T - Thymin</tspan></text>
    <text
       xml:space="preserve"
       transform="matrix(0,-0.26458333,0.26458333,0,21.860431,148.96863)"
       id="text26561"
       style="font-style:normal;font-weight:normal;font-size:14.6667px;font-family:Arial;white-space:pre;shape-inside:url(#rect26563);fill:#000000;fill-opacity:1;stroke:none;-inkscape-font-specification:Arial;font-stretch:normal;font-variant:normal"><tspan
         x="343.31055"
         y="131.43766"
         id="tspan62551">A - Adenin</tspan></text>
    <text
       xml:space="preserve"
       transform="scale(0.26458333)"
       id="text33255"
       style="fill:black;fill-opacity:1;stroke:none;font-family:sans-serif;font-style:normal;font-weight:normal;font-size:40px;white-space:pre;shape-inside:url(#rect33257)" />
    <text
       xml:space="preserve"
       transform="matrix(0,-0.26458333,0.26458333,0,-0.78042505,143.44719)"
       id="text35241"
       style="font-style:normal;font-weight:normal;font-size:14.6667px;font-family:Arial;white-space:pre;shape-inside:url(#rect35243);fill:#000000;fill-opacity:1;stroke:none;-inkscape-font-specification:Arial;font-stretch:normal;font-variant:normal"><tspan
         x="320.57422"
         y="237.53727"
         id="tspan62553">G - Guanin</tspan></text>
    <text
       xml:space="preserve"
       transform="matrix(0,-0.26458333,0.26458333,0,-0.91321486,156.86967)"
       id="text38055"
       style="font-style:normal;font-weight:normal;font-size:14.6667px;font-family:Arial;white-space:pre;shape-inside:url(#rect38057);fill:#000000;fill-opacity:1;stroke:none;-inkscape-font-specification:Arial;font-stretch:normal;font-variant:normal"><tspan
         x="371.34961"
         y="261.03141"
         id="tspan62555">C - Cytosin</tspan></text>
  </g>
</svg>
